<?xml version="1.0" standalone="no"?>
<!DOCTYPE svg PUBLIC "-//W3C//DTD SVG 20010904//EN"
 "http://www.w3.org/TR/2001/REC-SVG-20010904/DTD/svg10.dtd">
<svg version="1.0" xmlns="http://www.w3.org/2000/svg"
 width="640.000000pt" height="640.000000pt" viewBox="0 0 640.000000 640.000000"
 preserveAspectRatio="xMidYMid meet">

<g transform="translate(0.000000,640.000000) scale(0.100000,-0.100000)"
fill="#000000" stroke="none">
<path d="M0 6390 c0 -7 1073 -10 3200 -10 2127 0 3200 3 3200 10 0 7 -1073 10
-3200 10 -2127 0 -3200 -3 -3200 -10z"/>
<path d="M3130 5789 c-25 -5 -54 -7 -64 -5 -35 9 -324 -35 -411 -62 -16 -6
-64 -20 -105 -32 -173 -52 -402 -161 -560 -266 -134 -89 -176 -122 -198 -154
-12 -19 -35 -39 -50 -46 -32 -13 -188 -174 -275 -283 -189 -237 -329 -529
-412 -859 -14 -57 -28 -125 -30 -150 -2 -26 -8 -72 -14 -104 -5 -31 -10 -112
-11 -180 -1 -67 -2 -127 -2 -133 -1 -29 15 -221 20 -229 5 -9 14 -88 16 -141
1 -16 7 -36 14 -44 8 -8 12 -27 10 -42 -3 -16 -1 -30 4 -31 5 -2 19 -42 31
-89 13 -48 28 -94 36 -102 7 -9 10 -25 6 -37 -4 -14 -2 -20 8 -20 19 0 30 -42
14 -52 -8 -5 -6 -9 6 -14 10 -4 16 -12 13 -20 -3 -7 1 -18 9 -24 8 -6 12 -17
9 -25 -7 -17 15 -30 29 -16 7 7 6 20 -5 43 -22 47 -36 79 -43 106 -4 12 -11
19 -17 16 -6 -4 -8 -3 -5 3 8 13 -14 83 -25 83 -5 0 -7 4 -4 8 3 5 -2 33 -10
63 -9 30 -19 68 -24 84 -22 78 -50 283 -54 405 -3 82 -2 123 3 105 6 -21 9 2
10 82 0 62 5 134 10 160 5 26 15 82 21 123 70 448 304 897 625 1202 l60 57 80
6 c44 3 96 5 115 3 19 -2 184 1 365 5 182 4 530 12 775 17 245 6 517 12 605
15 88 2 320 7 515 10 195 4 363 9 373 12 14 3 15 8 7 18 -7 8 -7 15 -1 19 8 5
83 -60 203 -176 21 -21 43 -38 48 -38 20 0 9 20 -30 51 -21 17 -38 36 -37 42
1 6 -3 11 -10 12 -14 0 -133 111 -127 119 2 3 1 4 -3 1 -3 -3 -15 3 -25 12
-16 14 -23 15 -39 5 -10 -7 -36 -14 -57 -16 -73 -9 -1120 -29 -1137 -22 -26 9
0 36 35 36 37 0 71 29 102 87 35 65 44 109 24 116 -10 4 -16 19 -16 39 0 39
-10 78 -19 78 -4 0 -5 -16 -3 -35 l4 -34 -98 -3 -99 -3 -9 -32 c-8 -24 -17
-34 -39 -39 -34 -7 -77 12 -77 35 0 9 -7 3 -15 -13 -22 -42 -118 -137 -132
-131 -28 10 -11 -17 29 -45 48 -35 63 -32 22 4 -23 21 -26 27 -15 35 8 5 20 7
28 4 13 -5 100 65 96 78 -1 3 9 4 22 1 24 -4 25 -8 25 -73 0 -38 3 -69 8 -69
11 0 32 52 30 75 -3 30 42 113 61 114 54 3 108 15 123 28 10 9 24 13 32 10 29
-11 -26 -149 -67 -166 -5 -2 -31 -23 -58 -47 -48 -42 -53 -44 -117 -45 -79 -2
-89 -3 -122 -12 -14 -3 -149 -9 -300 -12 -151 -3 -441 -10 -644 -15 -202 -5
-374 -6 -382 -3 -10 4 -11 10 -3 25 6 10 16 17 22 15 20 -7 69 18 157 80 241
171 547 296 865 354 66 12 134 29 150 39 17 10 40 21 52 24 18 6 21 4 15 -16
-3 -13 -16 -31 -28 -41 -38 -29 -63 -71 -70 -116 l-7 -41 30 27 c41 40 75 91
68 103 -3 6 1 13 9 16 9 3 16 13 16 21 0 11 7 13 24 9 30 -7 86 12 86 30 0 8
9 14 20 14 16 0 20 -7 22 -37 0 -21 0 -47 -1 -58 -1 -10 1 -26 4 -34 5 -11 9
-10 21 7 8 12 13 26 10 31 -4 5 -2 21 4 36 9 25 13 26 70 24 33 -1 60 -5 60
-9 0 -4 -26 -36 -57 -70 -32 -35 -57 -68 -55 -73 2 -6 -3 -14 -10 -18 -9 -6
-4 -9 14 -9 23 0 27 4 25 23 -1 17 3 21 17 19 26 -5 88 57 80 80 -3 12 0 18
10 18 18 0 21 16 6 25 -6 4 -8 11 -5 16 9 14 35 11 51 -6 9 -8 25 -17 37 -19
180 -33 271 -52 321 -67 38 -12 62 -15 66 -8 4 6 15 6 31 0 13 -5 18 -10 12
-10 -7 -1 -13 -5 -13 -11 0 -14 27 -13 32 2 3 8 9 8 24 0 19 -11 19 -11 -1
-12 -17 -1 -17 -3 5 -11 13 -6 35 -7 49 -4 19 5 22 3 17 -11 -5 -13 -2 -15 13
-11 35 9 129 -33 272 -120 36 -22 75 -43 86 -47 12 -4 24 -13 27 -21 3 -8 12
-15 21 -15 8 0 15 -4 15 -10 0 -5 7 -10 15 -10 8 0 15 -4 15 -10 0 -5 7 -10
15 -10 16 0 21 16 6 22 -4 2 -21 13 -37 26 -82 65 -266 166 -454 249 -19 9
-43 20 -52 24 -10 5 -25 9 -33 9 -8 0 -23 4 -33 10 -35 20 -151 52 -292 80
-155 32 -229 37 -248 18 -8 -8 -12 -8 -12 -1 0 26 -168 40 -260 22z m153 -26
c-7 -2 -14 -17 -14 -31 -1 -18 -3 -21 -6 -9 -6 24 3 47 19 46 10 0 10 -2 1 -6z
m597 -103 c0 -5 -2 -10 -4 -10 -3 0 -8 5 -11 10 -3 6 -1 10 4 10 6 0 11 -4 11
-10z m-2833 -1832 c-3 -8 -6 -5 -6 6 -1 11 2 17 5 13 3 -3 4 -12 1 -19z m-10
-191 c-2 -23 -3 -1 -3 48 0 50 1 68 3 42 2 -26 2 -67 0 -90z"/>
<path d="M3460 5680 c0 -5 5 -10 10 -10 6 0 10 5 10 10 0 6 -4 10 -10 10 -5 0
-10 -4 -10 -10z"/>
<path d="M3110 5666 c0 -2 7 -12 16 -20 17 -18 39 -22 29 -6 -7 11 -45 33 -45
26z"/>
<path d="M3480 5651 c0 -6 5 -13 10 -16 6 -3 10 1 10 9 0 9 -4 16 -10 16 -5 0
-10 -4 -10 -9z"/>
<path d="M3230 5580 c0 -5 5 -10 10 -10 6 0 10 5 10 10 0 6 -4 10 -10 10 -5 0
-10 -4 -10 -10z"/>
<path d="M3046 5542 l-78 -3 7 -57 c7 -59 11 -69 21 -60 3 4 1 22 -4 42 -7 25
-7 38 1 43 6 3 13 1 15 -5 2 -7 23 -12 51 -12 35 0 51 5 65 21 10 12 14 24 9
28 -4 3 -43 5 -87 3z"/>
<path d="M3180 5539 c0 -5 5 -7 10 -4 6 3 10 8 10 11 0 2 -4 4 -10 4 -5 0 -10
-5 -10 -11z"/>
<path d="M3200 5509 c0 -5 5 -7 10 -4 6 3 10 8 10 11 0 2 -4 4 -10 4 -5 0 -10
-5 -10 -11z"/>
<path d="M3233 5495 c0 -8 4 -15 9 -15 4 0 8 7 8 15 0 8 -4 15 -8 15 -5 0 -9
-7 -9 -15z"/>
<path d="M3320 5441 c0 -13 29 -35 37 -28 7 8 -15 37 -28 37 -5 0 -9 -4 -9 -9z"/>
<path d="M3365 5390 c3 -5 11 -10 16 -10 6 0 7 5 4 10 -3 6 -11 10 -16 10 -6
0 -7 -4 -4 -10z"/>
<path d="M4158 5113 c-22 -6 -30 -36 -26 -94 4 -61 22 -51 26 15 3 52 4 55 35
62 28 6 30 8 12 15 -22 8 -23 9 -47 2z"/>
<path d="M4010 5108 c-1 -2 -3 -47 -5 -101 -2 -53 -9 -106 -16 -118 -6 -12 -8
-36 -4 -55 5 -27 11 -34 28 -34 34 0 51 15 42 36 -5 11 -7 52 -6 92 2 47 -1
72 -8 72 -7 0 -11 22 -11 55 0 30 -4 55 -10 55 -5 0 -10 -1 -10 -2z"/>
<path d="M3779 5078 c0 -13 0 -65 1 -116 1 -74 -2 -97 -14 -111 -25 -27 -10
-51 30 -51 24 0 34 5 34 15 0 8 -4 15 -10 15 -5 0 -10 9 -10 19 0 11 5 23 10
26 6 3 9 21 9 38 l-2 32 -7 -35 c-5 -24 -8 1 -9 78 -1 92 -4 112 -16 112 -9 0
-15 -10 -16 -22z"/>
<path d="M3900 5079 c0 -11 7 -27 16 -36 8 -9 13 -22 10 -29 -6 -16 10 -19 19
-4 7 12 -25 90 -37 90 -4 0 -8 -9 -8 -21z"/>
<path d="M3255 5084 c-5 -1 -22 -5 -36 -8 -29 -6 -45 -43 -34 -77 10 -31 35
-23 35 10 0 17 5 33 10 36 6 3 10 -1 10 -9 0 -17 27 -21 48 -7 11 7 11 11 -1
22 -7 8 -16 19 -18 25 -2 6 -8 10 -14 8z"/>
<path d="M3396 5083 c-24 -4 -27 -8 -23 -29 2 -13 1 -24 -3 -24 -4 0 -5 -11
-2 -25 6 -33 26 -27 30 10 2 16 7 24 10 18 11 -17 62 -3 62 16 0 20 -19 42
-34 40 -6 -1 -24 -4 -40 -6z"/>
<path d="M2847 5073 c-4 -6 -7 -64 -8 -131 -1 -95 -4 -122 -15 -126 -26 -10 2
-46 36 -46 36 0 44 11 25 36 -10 14 -14 50 -15 134 0 106 -9 156 -23 133z"/>
<path d="M2966 5037 c-7 -45 -1 -77 15 -77 4 0 6 7 3 15 -4 10 0 15 11 15 14
0 16 6 10 27 -3 14 -12 35 -19 45 -12 17 -14 15 -20 -25z m24 -26 c0 -6 -4
-13 -10 -16 -5 -3 -10 1 -10 9 0 9 5 16 10 16 6 0 10 -4 10 -9z"/>
<path d="M3078 5074 c-5 -4 -8 -29 -8 -55 0 -28 -5 -49 -12 -52 -10 -4 -10 -6
0 -6 7 -1 12 -14 12 -32 0 -17 -4 -28 -10 -24 -13 8 -13 -11 1 -36 8 -16 7
-23 -6 -33 -16 -12 -16 -13 0 -29 9 -9 13 -17 9 -17 -5 0 -3 -5 3 -11 16 -16
53 -1 53 21 0 10 -5 22 -11 25 -6 4 -8 34 -5 79 5 73 -13 184 -26 170z"/>
<path d="M3580 5070 c34 -11 60 -11 35 0 -11 5 -29 8 -40 8 -16 0 -15 -2 5 -8z"/>
<path d="M3646 5071 c-4 -5 -3 -16 0 -24 7 -19 -35 -63 -56 -59 -30 4 -41 -15
-43 -75 -1 -33 -8 -67 -15 -76 -9 -10 -10 -17 -2 -22 6 -3 8 -11 5 -16 -4 -5
10 -9 29 -9 36 0 56 14 33 23 -9 3 -14 27 -16 71 -2 69 0 72 55 65 3 0 11 7
18 17 7 9 18 14 25 10 21 -13 23 23 4 63 -18 41 -27 48 -37 32z"/>
<path d="M4227 5066 c-30 -23 -21 -44 23 -48 22 -2 40 0 40 4 0 5 -4 8 -10 8
-5 0 -10 6 -10 14 0 24 -23 36 -43 22z"/>
<path d="M2486 5054 c-5 -20 -11 -152 -6 -169 6 -22 -1 -28 -12 -12 -12 15
-13 14 -14 -14 -1 -17 2 -26 5 -20 4 6 12 6 20 2 11 -7 10 -10 -3 -18 -10 -6
-15 -18 -13 -34 3 -20 10 -24 38 -24 32 0 34 2 36 35 2 29 1 32 -7 15 -7 -14
-9 3 -6 60 3 44 1 102 -3 128 -9 55 -26 79 -35 51z"/>
<path d="M2615 5054 c-13 -14 -16 -34 -13 -115 2 -60 -1 -101 -7 -103 -6 -2
-5 -11 3 -22 7 -11 15 -27 19 -38 5 -16 13 -17 51 -12 25 3 58 6 73 6 29 0 41
24 17 33 -9 2 -13 24 -13 63 0 46 -3 59 -15 59 -11 0 -16 -13 -18 -47 -2 -34
-7 -48 -18 -48 -7 0 -14 -5 -14 -11 0 -6 -10 -9 -22 -7 -22 3 -23 6 -22 103 2
140 2 135 24 135 11 0 20 5 20 10 0 16 -47 11 -65 -6z m90 -254 c3 -5 -1 -10
-10 -10 -9 0 -13 5 -10 10 3 6 8 10 10 10 2 0 7 -4 10 -10z"/>
<path d="M2235 5051 c-28 -6 -30 -9 -33 -60 -3 -48 -1 -53 12 -41 9 7 16 23
16 36 0 12 4 26 10 29 6 4 7 -1 3 -11 -5 -14 -2 -16 18 -11 13 4 27 7 32 7 11
0 8 30 -3 30 -5 0 -10 7 -10 15 0 8 -3 14 -7 14 -5 -1 -21 -4 -38 -8z"/>
<path d="M2380 5029 c0 -19 7 -37 18 -45 15 -12 15 -15 2 -24 -8 -5 -10 -10
-5 -10 6 0 2 -7 -9 -15 -15 -11 -18 -23 -14 -63 3 -33 0 -52 -9 -61 -10 -9
-11 -16 -4 -25 6 -7 8 -15 6 -18 -10 -10 32 -16 46 -7 11 7 12 12 2 29 -18 28
-17 110 1 110 7 0 19 6 25 14 10 11 8 16 -8 21 -22 7 -28 21 -12 27 11 4 -18
98 -30 98 -5 0 -9 -14 -9 -31z"/>
<path d="M2701 5023 c-28 -27 -22 -38 27 -48 20 -4 32 -3 32 4 0 6 -4 11 -10
11 -5 0 -10 11 -10 24 0 34 -11 36 -39 9z"/>
<path d="M4865 5030 c13 -15 22 -17 29 -10 12 12 -8 30 -33 30 -11 0 -10 -5 4
-20z"/>
<path d="M3597 5020 c-3 -11 -1 -20 4 -20 5 0 9 9 9 20 0 11 -2 20 -4 20 -2 0
-6 -9 -9 -20z"/>
<path d="M2883 4940 c0 -47 2 -66 4 -42 2 23 2 61 0 85 -2 23 -4 4 -4 -43z"/>
<path d="M3540 5011 c0 -6 5 -13 10 -16 6 -3 10 1 10 9 0 9 -4 16 -10 16 -5 0
-10 -4 -10 -9z"/>
<path d="M4900 5001 c0 -9 25 -41 63 -82 9 -10 17 -21 17 -24 0 -3 5 -11 10
-18 6 -7 17 -21 25 -32 11 -16 16 -17 26 -8 10 10 9 14 -4 19 -9 3 -17 14 -17
23 0 22 -43 64 -55 54 -4 -5 -5 0 -2 9 4 10 0 21 -8 25 -7 5 -14 12 -14 18 0
5 -9 12 -20 17 -12 4 -21 3 -21 -1z"/>
<path d="M3899 4973 c-1 -5 -3 -30 -5 -58 -3 -27 -6 -65 -8 -82 -4 -32 -3 -33
31 -33 28 0 34 3 29 16 -3 9 -6 18 -6 20 0 3 -4 3 -8 0 -5 -3 -9 19 -10 49 -1
47 1 55 21 61 12 5 25 7 30 6 14 -4 7 16 -9 22 -22 8 -64 8 -65 -1z"/>
<path d="M3005 4960 c-3 -5 -1 -10 4 -10 6 0 11 5 11 10 0 6 -2 10 -4 10 -3 0
-8 -4 -11 -10z"/>
<path d="M3240 4963 c-14 -3 -31 -10 -37 -15 -15 -12 -17 -98 -3 -98 13 0 29
41 23 58 -3 6 0 12 6 12 6 0 11 -7 11 -15 0 -14 3 -14 30 0 29 15 30 16 14 40
-9 14 -17 24 -18 24 0 -1 -12 -4 -26 -6z"/>
<path d="M3369 4966 c-2 -2 -2 -27 -1 -55 4 -52 25 -71 35 -31 3 13 17 22 36
26 33 7 41 30 19 52 -11 11 -79 17 -89 8z m51 -40 c0 -3 -4 -8 -10 -11 -5 -3
-10 -1 -10 4 0 6 5 11 10 11 6 0 10 -2 10 -4z"/>
<path d="M4240 4960 c0 -5 -10 -10 -22 -11 -22 0 -22 -1 2 -10 18 -8 21 -12
11 -18 -11 -7 -11 -9 0 -13 8 -3 12 -8 9 -10 -9 -10 -100 -16 -100 -7 0 5 -7
6 -15 3 -22 -9 -18 -26 14 -61 28 -30 32 -32 83 -27 29 3 59 7 66 10 17 5 15
24 -3 24 -11 0 -15 11 -14 38 0 30 2 33 9 17 8 -18 9 -17 9 8 1 15 -3 27 -9
27 -5 0 -10 9 -10 20 0 11 -7 20 -15 20 -8 0 -15 -4 -15 -10z m-5 -120 c3 -5
-1 -10 -9 -10 -9 0 -16 5 -16 10 0 6 4 10 9 10 6 0 13 -4 16 -10z"/>
<path d="M4131 4944 c0 -11 3 -14 6 -6 3 7 2 16 -1 19 -3 4 -6 -2 -5 -13z"/>
<path d="M2964 4933 c-1 -23 -13 -93 -20 -115 -3 -11 0 -18 8 -18 11 0 10 -2
0 -9 -10 -6 -7 -10 13 -15 35 -9 51 5 36 32 -20 37 -14 86 11 97 13 6 24 19
26 30 2 12 0 16 -5 10 -10 -14 -53 -17 -53 -4 0 17 -16 9 -16 -8z"/>
<path d="M2210 4932 c-5 -2 -10 -26 -10 -53 0 -37 4 -49 15 -49 8 0 15 8 15
19 0 14 10 21 35 25 37 7 48 33 23 54 -12 9 -54 12 -78 4z"/>
<path d="M3663 4933 c-8 -3 -13 -21 -13 -44 0 -21 -4 -39 -10 -39 -5 0 -10 -7
-10 -15 0 -8 4 -15 10 -15 5 0 7 -7 4 -15 -7 -18 32 -21 56 -5 13 9 13 12 -2
23 -11 9 -18 31 -20 64 -2 34 -7 48 -15 46z"/>
<path d="M4168 4913 c7 -3 16 -2 19 1 4 3 -2 6 -13 5 -11 0 -14 -3 -6 -6z"/>
<path d="M3360 4840 c-5 -3 -8 -16 -7 -28 1 -20 6 -22 69 -22 71 0 76 3 53 34
-14 18 -93 29 -115 16z"/>
<path d="M3174 4829 c-3 -5 -2 -18 1 -29 5 -17 15 -20 65 -20 64 0 72 4 60 36
-7 18 -17 21 -64 22 -31 0 -58 -4 -62 -9z"/>
<path d="M5040 4820 c0 -5 6 -10 14 -10 9 0 12 -7 9 -20 -4 -16 0 -20 18 -20
22 0 22 0 3 15 -10 8 -15 15 -10 15 11 0 -14 30 -25 30 -5 0 -9 -4 -9 -10z"/>
<path d="M2189 4808 c-1 -2 -2 -15 -3 -30 -2 -27 -1 -28 54 -28 70 0 87 9 69
39 -11 17 -24 21 -66 21 -29 0 -54 -1 -54 -2z"/>
<path d="M3840 4749 c-96 -4 -231 -7 -300 -8 -69 -2 -231 -6 -360 -11 -286
-11 -570 -19 -668 -20 -66 0 -73 -2 -81 -22 -5 -13 -5 -25 0 -28 4 -3 10 -46
14 -95 3 -50 8 -100 11 -112 3 -16 0 -23 -11 -23 -8 0 -15 -4 -15 -10 0 -5 7
-7 15 -4 21 8 35 -36 28 -83 -6 -36 -6 -37 11 -20 19 19 22 40 12 97 -3 19
-10 82 -16 140 -6 58 -13 113 -16 123 -3 9 -1 17 5 17 6 0 11 -7 11 -15 0 -10
10 -15 33 -15 67 0 757 20 877 25 69 2 247 7 395 10 386 8 485 14 485 31 0 25
18 15 70 -38 27 -28 50 -45 50 -38 0 8 -23 36 -52 62 l-51 49 -136 -3 c-75 -2
-215 -6 -311 -9z"/>
<path d="M5098 4751 c-13 -4 -15 -10 -8 -21 9 -13 11 -13 21 0 8 12 10 9 6
-12 -3 -19 0 -28 9 -28 17 0 17 18 1 46 -8 14 -18 19 -29 15z"/>
<path d="M4777 4703 c-79 -45 -106 -77 -92 -110 7 -17 8 -17 17 3 6 12 31 28
61 39 29 10 67 31 86 47 18 16 44 34 57 40 35 16 29 28 -13 27 -26 -1 -64 -16
-116 -46z"/>
<path d="M4938 4699 c-2 -13 -17 -32 -33 -44 -21 -13 -29 -26 -27 -40 6 -33
18 -38 50 -21 65 33 74 64 32 109 -18 19 -18 19 -22 -4z"/>
<path d="M2042 4653 c-92 -108 -102 -121 -102 -132 0 -6 -4 -11 -8 -11 -26 0
-173 -261 -222 -395 -29 -78 -72 -237 -66 -243 14 -13 57 60 86 145 63 192
166 379 286 524 34 41 66 88 70 103 3 15 13 30 20 33 20 8 17 23 -5 23 -10 0
-36 -21 -59 -47z"/>
<path d="M5136 4681 c-10 -15 3 -37 34 -60 17 -12 30 -29 30 -39 0 -15 -2 -15
-10 -2 -6 9 -10 10 -10 3 0 -19 20 -26 26 -9 8 20 -21 66 -41 66 -17 0 -20 16
-5 25 11 7 4 25 -10 25 -5 0 -11 -4 -14 -9z"/>
<path d="M2253 4673 c9 -2 23 -2 30 0 6 3 -1 5 -18 5 -16 0 -22 -2 -12 -5z"/>
<path d="M2348 4673 c7 -3 16 -2 19 1 4 3 -2 6 -13 5 -11 0 -14 -3 -6 -6z"/>
<path d="M2247 4634 c-20 -11 -27 -22 -25 -37 3 -25 38 -37 38 -13 0 10 12 16
41 18 41 3 72 28 56 45 -5 4 -12 1 -16 -6 -7 -10 -13 -10 -29 -2 -26 14 -31
14 -65 -5z"/>
<path d="M4044 4615 c-3 -8 -3 -19 1 -25 6 -10 0 -14 -47 -24 -15 -3 -30 -15
-33 -26 -9 -28 -30 -25 -53 7 l-19 26 -22 -20 c-15 -14 -30 -18 -49 -15 l-26
5 17 -27 c26 -38 19 -70 -15 -74 -15 -2 -34 -12 -42 -23 -8 -11 -20 -20 -27
-19 -8 2 -23 2 -34 1 -19 -2 -19 -3 4 -21 13 -11 30 -20 37 -20 16 0 34 -38
35 -78 l1 -27 8 30 c36 138 114 205 254 214 72 5 78 8 64 21 -8 9 -18 37 -22
63 -7 46 -21 61 -32 32z"/>
<path d="M4422 4608 c2 -6 10 -14 16 -16 7 -2 10 2 6 12 -7 18 -28 22 -22 4z"/>
<path d="M4771 4576 c-12 -7 -34 -11 -47 -8 -26 5 -34 -15 -9 -24 8 -4 15 -12
15 -20 0 -19 32 -18 69 4 36 20 37 24 14 45 -15 13 -22 13 -42 3z"/>
<path d="M4450 4572 c0 -4 9 -15 20 -25 23 -19 26 -11 6 16 -14 18 -26 22 -26
9z"/>
<path d="M2142 4550 c0 -14 2 -19 5 -12 2 6 2 18 0 25 -3 6 -5 1 -5 -13z"/>
<path d="M2197 4554 c3 -8 -1 -14 -10 -14 -21 0 -33 -19 -41 -63 -6 -34 -5
-38 11 -35 9 2 21 17 27 35 7 28 12 32 32 27 20 -5 24 -2 24 15 0 15 -4 19
-17 14 -12 -5 -15 -2 -10 9 3 9 0 19 -8 22 -9 3 -12 0 -8 -10z"/>
<path d="M2380 4561 c0 -5 -8 -12 -17 -15 -10 -3 -28 -12 -41 -20 -19 -11 -20
-15 -8 -19 9 -4 16 -13 16 -22 0 -20 4 -19 36 10 15 14 33 25 39 25 18 0 25
23 11 35 -16 14 -36 17 -36 6z"/>
<path d="M4229 4559 c-7 -4 -17 -5 -21 -3 -4 3 -5 -1 -2 -9 4 -11 -4 -14 -33
-13 -29 1 -38 -3 -41 -17 -2 -11 2 -17 10 -16 7 1 26 -3 41 -9 19 -8 34 -9 47
-2 27 14 50 40 50 55 0 16 -33 25 -51 14z"/>
<path d="M5213 4553 c-20 -7 -15 -29 7 -30 11 -1 20 4 20 12 0 17 -11 24 -27
18z"/>
<path d="M5022 4541 c-11 -7 -11 -9 1 -14 16 -6 27 0 27 15 0 10 -11 10 -28
-1z"/>
<path d="M2255 4511 c-3 -5 -1 -12 5 -16 5 -3 10 1 10 9 0 18 -6 21 -15 7z"/>
<path d="M4500 4512 c0 -12 19 -26 26 -19 2 2 -2 10 -11 17 -9 8 -15 8 -15 2z"/>
<path d="M4915 4510 c-3 -5 1 -10 9 -10 9 0 16 5 16 10 0 6 -4 10 -9 10 -6 0
-13 -4 -16 -10z"/>
<path d="M5005 4510 c-3 -5 -1 -10 4 -10 6 0 11 5 11 10 0 6 -2 10 -4 10 -3 0
-8 -4 -11 -10z"/>
<path d="M5042 4503 c-6 -10 -10 -22 -10 -27 -1 -10 -26 -25 -101 -61 -83 -39
-95 -40 -115 -11 -20 31 -36 34 -29 6 3 -11 9 -17 14 -14 5 3 9 -3 9 -13 0
-10 12 -29 25 -42 l25 -23 106 43 c135 55 157 83 110 134 -23 25 -25 25 -34 8z"/>
<path d="M5232 4494 c-10 -11 -8 -15 8 -24 17 -9 20 -8 20 9 0 26 -12 32 -28
15z"/>
<path d="M2293 4478 c2 -7 -13 -23 -35 -36 -30 -18 -38 -29 -38 -53 0 -16 0
-32 -1 -36 -2 -19 23 -13 28 7 4 14 11 19 21 15 17 -6 44 13 36 26 -3 5 2 9
10 9 8 0 18 -4 21 -10 9 -15 51 -12 65 5 11 13 8 15 -15 15 -28 0 -79 33 -68
44 3 3 1 6 -6 6 -7 0 -9 5 -6 10 3 6 1 10 -5 10 -7 0 -10 -6 -7 -12z m94 -74
c-3 -3 -12 -4 -19 -1 -8 3 -5 6 6 6 11 1 17 -2 13 -5z"/>
<path d="M3295 4480 c-3 -5 -18 -10 -33 -10 -18 0 -23 -3 -14 -9 15 -9 8 -52
-14 -86 -7 -11 -15 -47 -18 -80 -3 -33 -3 -53 0 -45 4 8 21 29 39 45 24 23
105 169 105 191 0 9 -59 3 -65 -6z"/>
<path d="M4838 4473 c7 -3 16 -2 19 1 4 3 -2 6 -13 5 -11 0 -14 -3 -6 -6z"/>
<path d="M4970 4470 c-8 -5 -12 -12 -9 -15 4 -3 12 1 19 10 14 17 11 19 -10 5z"/>
<path d="M4321 4456 c-10 -12 -9 -14 5 -12 10 2 20 8 22 14 5 17 -13 15 -27
-2z"/>
<path d="M4540 4460 c0 -5 5 -10 11 -10 5 0 7 5 4 10 -3 6 -8 10 -11 10 -2 0
-4 -4 -4 -10z"/>
<path d="M4876 4461 c-7 -10 3 -41 13 -41 3 0 13 5 21 10 12 8 11 10 -7 10
-13 0 -23 4 -23 9 0 5 10 12 23 14 22 4 22 4 0 6 -12 0 -24 -3 -27 -8z"/>
<path d="M5254 4434 c3 -9 6 -20 6 -25 0 -5 7 -9 15 -9 18 0 19 -12 3 -29 -11
-10 -10 -12 2 -9 9 2 16 -6 18 -19 2 -13 7 -23 12 -23 4 0 6 -9 3 -21 -3 -12
-1 -24 4 -28 14 -8 49 -126 72 -246 52 -259 60 -552 20 -770 -53 -298 -92
-420 -211 -660 -74 -151 -104 -199 -230 -365 -161 -215 -431 -451 -638 -559
-36 -19 -81 -44 -100 -56 -19 -12 -53 -28 -75 -37 -22 -9 -65 -27 -95 -41 -94
-42 -287 -99 -430 -126 -283 -55 -518 -55 -825 0 -106 19 -301 71 -337 90 -10
5 -22 9 -27 9 -6 0 -47 17 -93 39 -46 21 -94 42 -108 46 -14 4 -30 11 -36 16
-16 13 -93 56 -132 74 -17 8 -32 19 -32 24 0 5 -12 12 -26 15 -17 5 -24 12
-20 21 3 9 0 12 -8 9 -16 -6 -92 44 -89 57 2 5 -3 9 -10 9 -16 0 -84 55 -171
138 -39 37 -82 76 -96 86 -16 12 -21 20 -12 23 6 3 10 9 7 13 -3 5 -12 7 -21
3 -10 -4 -18 4 -26 24 -10 26 -55 59 -66 49 -7 -8 9 -26 24 -26 8 0 14 -7 14
-16 0 -19 186 -203 290 -287 41 -33 80 -66 86 -74 6 -7 14 -13 18 -13 10 0
141 -83 144 -92 2 -4 12 -8 22 -8 10 0 20 -7 24 -15 3 -8 14 -15 25 -15 10 0
21 -6 24 -14 3 -8 19 -17 36 -21 17 -4 31 -10 31 -14 0 -11 81 -52 91 -45 5 3
9 2 9 -3 0 -15 129 -67 269 -107 1034 -301 2136 180 2633 1149 101 196 167
397 212 640 7 40 16 122 21 210 3 50 9 100 12 113 3 12 1 22 -5 22 -6 0 -10
26 -10 64 0 35 -3 70 -7 77 -5 8 -4 10 3 5 8 -5 12 2 12 21 0 19 -3 24 -9 15
-5 -9 -10 -2 -14 24 -4 21 -2 43 4 50 11 14 -5 64 -21 64 -6 0 -6 9 1 27 7 18
6 30 -1 37 -5 5 -10 20 -10 32 0 13 -5 26 -10 29 -6 3 -7 17 -4 31 4 15 2 24
-6 24 -7 0 -9 8 -5 19 3 11 1 22 -5 26 -6 3 -8 11 -5 16 4 5 3 14 -1 21 -4 7
-9 22 -10 34 -1 13 -9 38 -17 56 -8 18 -18 46 -22 62 -12 56 -69 176 -83 176
-9 0 -12 -6 -8 -16z m213 -936 c-3 -8 -6 -5 -6 6 -1 11 2 17 5 13 3 -3 4 -12
1 -19z"/>
<path d="M3225 4430 c-3 -5 -1 -10 4 -10 6 0 11 5 11 10 0 6 -2 10 -4 10 -3 0
-8 -4 -11 -10z"/>
<path d="M3730 4430 c0 -5 5 -10 11 -10 5 0 7 5 4 10 -3 6 -8 10 -11 10 -2 0
-4 -4 -4 -10z"/>
<path d="M4264 4424 c3 -9 6 -19 6 -22 0 -9 20 21 20 31 0 4 -7 7 -16 7 -11 0
-14 -5 -10 -16z"/>
<path d="M4560 4436 c0 -12 51 -88 56 -83 3 3 -7 22 -21 43 -30 44 -35 50 -35
40z"/>
<path d="M2127 4411 c-3 -14 -1 -18 9 -14 16 6 18 19 5 27 -5 3 -11 -3 -14
-13z"/>
<path d="M4325 4423 c-24 -7 -44 -33 -38 -50 6 -16 63 -17 98 -1 27 12 34 38
10 38 -8 0 -15 5 -15 10 0 10 -21 11 -55 3z"/>
<path d="M3217 4403 c-4 -3 -7 -11 -7 -17 0 -6 5 -5 12 2 6 6 9 14 7 17 -3 3
-9 2 -12 -2z"/>
<path d="M2137 4370 c-3 -11 -1 -20 3 -20 5 0 11 8 13 18 4 16 5 16 6 0 0 -10
8 -18 18 -18 14 0 14 2 -2 20 -10 11 -21 20 -25 20 -4 0 -10 -9 -13 -20z"/>
<path d="M2398 4363 c7 -3 16 -2 19 1 4 3 -2 6 -13 5 -11 0 -14 -3 -6 -6z"/>
<path d="M5105 4351 c-3 -5 -42 -24 -88 -41 -45 -17 -94 -36 -109 -41 -23 -10
-27 -16 -25 -50 1 -34 4 -39 24 -39 13 0 23 5 23 10 0 6 -4 10 -10 10 -5 0
-10 7 -10 15 0 11 7 13 28 9 19 -4 59 6 123 31 52 20 97 39 101 43 3 4 -7 19
-22 35 -16 15 -31 23 -35 18z"/>
<path d="M2405 4343 c-11 -3 -24 -10 -30 -17 -5 -7 -17 -15 -26 -18 -12 -5
-15 -14 -12 -32 5 -27 17 -34 28 -16 3 6 15 10 27 10 14 0 18 5 14 15 -3 10 3
17 20 21 15 4 24 12 22 22 -3 18 -15 22 -43 15z"/>
<path d="M2141 4333 c-18 -4 -21 -7 -11 -13 11 -7 12 -18 3 -56 -11 -49 -5
-88 12 -76 19 13 47 76 36 80 -16 5 -13 32 3 32 7 0 19 -7 26 -15 13 -16 50
-21 50 -7 0 11 -29 49 -30 39 0 -5 -7 -1 -16 7 -15 16 -27 17 -73 9z"/>
<path d="M3183 4315 c-3 -9 -3 -19 1 -22 3 -4 6 1 6 11 0 10 5 14 12 10 7 -4
8 -3 4 4 -10 16 -15 15 -23 -3z"/>
<path d="M4392 4308 c-6 -6 -12 -22 -12 -35 0 -13 -3 -22 -7 -22 -20 3 -41 -2
-58 -15 -18 -13 -18 -14 -1 -31 21 -21 110 -33 120 -16 9 15 -3 96 -18 116 -9
12 -14 13 -24 3z"/>
<path d="M4647 4280 c3 -11 9 -20 15 -20 5 0 4 9 -2 20 -6 11 -12 20 -14 20
-2 0 -2 -9 1 -20z"/>
<path d="M3724 4275 c-4 -8 -4 -24 -1 -35 4 -16 0 -19 -27 -17 -17 1 -34 6
-38 11 -9 13 -57 14 -55 1 1 -6 -24 -11 -58 -12 -100 -4 -217 -3 -226 2 -4 3
-10 1 -14 -5 -8 -13 -55 -13 -55 0 0 6 -10 10 -22 10 -22 0 -23 -4 -24 -78 0
-44 3 -66 7 -52 6 22 7 20 14 -18 4 -24 14 -50 22 -58 8 -7 12 -18 9 -23 -4
-5 2 -12 11 -14 10 -3 -1 -5 -24 -6 -36 -1 -42 2 -37 17 2 9 -1 7 -7 -5 -6
-12 -9 -33 -5 -46 5 -22 13 -26 65 -32 33 -4 65 -4 70 0 16 9 13 25 -4 25 -9
0 -23 17 -33 38 -9 20 -19 39 -22 42 -8 7 -28 100 -28 130 -1 19 1 21 8 10 7
-13 37 -14 225 -8 268 10 285 15 285 89 0 37 -4 49 -15 49 -9 0 -18 -7 -21
-15z m-74 -85 c0 -5 -7 -10 -15 -10 -8 0 -15 5 -15 10 0 6 7 10 15 10 8 0 15
-4 15 -10z"/>
<path d="M2097 4260 c-3 -11 -2 -20 3 -20 4 0 10 9 13 20 3 11 2 20 -3 20 -4
0 -10 -9 -13 -20z"/>
<path d="M2515 4270 c3 -5 -6 -12 -20 -16 -17 -4 -23 -10 -17 -18 5 -6 9 -26
7 -43 -1 -19 3 -33 9 -33 6 0 12 -21 13 -48 1 -26 8 -92 16 -147 8 -55 13
-104 10 -108 -3 -5 3 -7 13 -5 20 4 21 11 10 108 -2 25 -7 52 -9 60 -3 8 -8
42 -11 75 -2 33 -7 74 -9 90 -3 17 -3 33 0 38 4 7 94 -38 143 -73 30 -22 80
-36 80 -24 0 17 -15 31 -47 44 -17 8 -29 18 -27 22 3 4 -4 8 -15 8 -11 0 -23
5 -27 11 -3 6 -28 21 -55 34 -27 12 -46 25 -42 29 3 3 -1 6 -11 6 -9 0 -14 -4
-11 -10z"/>
<path d="M3170 4250 c0 -11 4 -20 9 -20 5 0 7 9 4 20 -3 11 -7 20 -9 20 -2 0
-4 -9 -4 -20z"/>
<path d="M3680 4250 c-6 -11 -8 -20 -6 -20 3 0 10 9 16 20 6 11 8 20 6 20 -3
0 -10 -9 -16 -20z"/>
<path d="M2270 4241 c0 -10 -13 -32 -29 -49 -16 -16 -27 -33 -24 -36 4 -3 1
-6 -6 -6 -8 0 -10 -7 -6 -20 10 -30 -2 -41 -31 -30 -19 8 -31 6 -47 -5 -12 -8
-17 -15 -12 -15 5 0 4 -5 -3 -12 -7 -7 -8 -17 -1 -30 5 -10 6 -18 1 -18 -11 0
-3 -112 9 -124 5 -6 11 -1 14 10 3 10 13 32 21 47 16 33 19 97 3 97 -5 0 -8 4
-4 10 3 5 19 1 38 -10 48 -30 57 -33 65 -25 4 4 -4 16 -17 26 -18 15 -21 23
-13 31 7 7 12 20 12 31 0 13 5 17 18 13 24 -8 57 27 48 50 -5 13 -2 15 18 10
14 -3 28 -1 31 5 4 6 17 15 29 20 17 7 15 8 -10 4 -20 -4 -35 -1 -43 9 -6 7
-22 12 -34 10 -12 -2 -16 -2 -9 2 6 3 10 10 6 15 -9 16 -24 10 -24 -10z"/>
<path d="M4660 4243 c0 -5 8 -17 17 -28 14 -18 15 -18 9 -2 -3 10 -6 23 -6 28
0 5 -4 9 -10 9 -5 0 -10 -3 -10 -7z"/>
<path d="M3378 4233 c12 -2 32 -2 45 0 12 2 2 4 -23 4 -25 0 -35 -2 -22 -4z"/>
<path d="M2059 4221 c-14 -3 -39 -17 -56 -31 -26 -23 -31 -35 -36 -95 -16
-165 -21 -190 -37 -180 -5 3 -10 2 -10 -3 0 -5 -14 -12 -30 -16 -32 -6 -152
-50 -182 -67 -23 -12 -31 -12 -23 1 11 17 0 11 -34 -19 -29 -26 -32 -34 -31
-82 1 -30 -1 -73 -5 -96 -9 -51 4 -253 16 -253 7 0 6 89 -1 125 -1 6 -1 37 0
70 l3 60 6 -55 c6 -54 7 -53 14 41 5 52 12 102 17 109 5 8 82 41 172 75 l163
61 8 100 c10 128 34 213 65 225 40 15 25 40 -19 30z m-62 -253 c-3 -7 -5 -2
-5 12 0 14 2 19 5 13 2 -7 2 -19 0 -25z m-350 -270 c-3 -8 -6 -5 -6 6 -1 11 2
17 5 13 3 -3 4 -12 1 -19z"/>
<path d="M5165 4202 c-5 -6 -59 -26 -120 -45 l-110 -35 -3 -46 c-3 -40 -1 -46
17 -46 23 0 41 22 23 28 -15 5 -16 32 -2 32 6 0 10 -5 10 -11 0 -7 12 -8 33
-3 110 24 249 84 195 84 -8 0 -18 12 -24 26 -6 17 -12 22 -19 16z"/>
<path d="M2110 4171 c0 -6 4 -13 10 -16 6 -3 7 1 4 9 -7 18 -14 21 -14 7z"/>
<path d="M2345 4170 c-3 -6 1 -13 10 -16 19 -8 30 0 20 15 -8 14 -22 14 -30 1z"/>
<path d="M2402 4165 c-11 -12 -10 -15 3 -15 8 0 15 4 15 9 0 5 10 12 23 14 21
4 20 4 -3 5 -14 1 -31 -5 -38 -13z"/>
<path d="M4708 4165 c-3 -4 0 -18 8 -33 8 -15 14 -34 15 -42 0 -8 3 -10 5 -4
6 13 -20 87 -28 79z"/>
<path d="M2170 4150 c0 -5 5 -10 10 -10 6 0 10 5 10 10 0 6 -4 10 -10 10 -5 0
-10 -4 -10 -10z"/>
<path d="M2785 4140 c-4 -7 -7 -52 -6 -101 l2 -88 -73 -51 c-59 -42 -73 -56
-73 -78 -1 -23 -7 -29 -43 -41 -35 -11 -42 -17 -37 -32 4 -12 2 -19 -6 -19 -7
0 -5 -6 6 -13 12 -9 14 -16 7 -21 -8 -5 -8 -15 -1 -33 5 -15 8 -32 5 -40 -3
-7 -1 -13 5 -13 6 0 8 -4 5 -9 -4 -5 -1 -32 4 -59 12 -52 18 -95 19 -124 1
-10 8 -18 17 -18 13 0 15 8 10 43 -3 23 -8 65 -11 92 -3 28 -8 66 -11 85 -3
19 -8 50 -10 68 -10 60 -1 66 55 37 28 -14 55 -25 61 -25 17 0 11 30 -7 37
-10 4 -24 13 -31 20 -7 7 -20 13 -28 13 -8 0 -14 5 -14 10 0 6 7 10 15 10 8 0
15 7 15 15 0 10 10 15 31 15 33 0 137 62 146 88 4 8 -1 18 -9 23 -15 8 -16 92
-2 151 7 31 -28 80 -41 58z"/>
<path d="M1302 4128 c-14 -14 -16 -38 -3 -38 10 0 26 39 19 46 -2 2 -10 -2
-16 -8z"/>
<path d="M2120 4130 c0 -5 5 -10 11 -10 5 0 7 5 4 10 -3 6 -8 10 -11 10 -2 0
-4 -4 -4 -10z"/>
<path d="M2390 4130 c8 -5 20 -10 25 -10 6 0 3 5 -5 10 -8 5 -19 10 -25 10 -5
0 -3 -5 5 -10z"/>
<path d="M2432 4105 c-66 -34 -112 -124 -69 -133 11 -2 17 3 17 13 0 11 5 15
15 11 18 -6 58 33 51 51 -5 12 10 28 27 28 4 0 7 3 7 8 0 4 0 11 0 16 0 15
-24 18 -48 6z"/>
<path d="M3744 4109 c-4 -8 -3 -9 4 -5 7 4 12 2 12 -3 0 -6 -4 -11 -8 -11 -5
0 -9 -6 -10 -12 -14 -92 -14 -98 0 -98 19 0 100 89 93 101 -4 5 -13 9 -21 9
-8 0 -14 6 -14 13 0 6 -5 4 -11 -5 -12 -21 -31 -24 -23 -4 7 18 -12 30 -22 15z"/>
<path d="M4290 4110 c0 -5 7 -10 16 -10 8 0 12 5 9 10 -3 6 -10 10 -16 10 -5
0 -9 -4 -9 -10z"/>
<path d="M4338 4101 c-10 -17 -20 -19 -60 -14 -26 3 -48 3 -48 0 0 -10 100
-67 119 -67 23 0 61 45 61 72 0 11 -4 17 -9 13 -5 -3 -12 -1 -16 5 -10 16 -34
12 -47 -9z"/>
<path d="M3705 4060 c3 -5 10 -10 16 -10 5 0 9 5 9 10 0 6 -7 10 -16 10 -8 0
-12 -4 -9 -10z"/>
<path d="M1255 4033 c-12 -18 -14 -28 -7 -31 7 -2 12 -10 12 -17 0 -25 21 -27
44 -6 21 20 25 21 65 6 23 -8 54 -12 70 -9 16 3 31 1 35 -4 4 -6 -2 -8 -16 -4
-13 3 -19 1 -15 -5 4 -6 19 -13 34 -16 16 -3 38 -8 49 -12 18 -5 23 -1 33 26
14 41 0 54 -54 50 -11 -1 -56 10 -100 24 -103 32 -128 32 -150 -2z m85 -13
c13 -9 13 -10 0 -10 -8 0 -22 5 -30 10 -13 9 -13 10 0 10 8 0 22 -5 30 -10z"/>
<path d="M4211 4038 c-1 -15 4 -30 10 -33 17 -11 18 -2 4 30 l-13 30 -1 -27z"/>
<path d="M4746 4033 c8 -32 24 -55 24 -32 0 26 -12 59 -21 59 -5 0 -6 -12 -3
-27z"/>
<path d="M5167 4015 c-26 -7 -55 -16 -65 -20 -9 -4 -37 -9 -61 -11 -56 -5 -68
-17 -77 -78 -6 -47 -6 -48 17 -41 32 10 48 26 32 32 -7 3 -13 12 -13 21 0 13
2 14 8 4 10 -16 42 -5 42 14 0 8 10 14 23 14 18 0 23 -5 22 -27 0 -24 4 -28
24 -25 33 3 39 11 18 23 -18 11 -24 39 -7 39 6 0 10 -4 10 -10 0 -18 22 -11
27 9 5 19 39 35 47 22 3 -4 1 -13 -5 -21 -20 -32 -11 -50 26 -50 25 0 35 4 35
15 0 9 -6 18 -14 21 -8 3 -17 23 -21 45 -4 21 -10 39 -13 38 -4 0 -28 -7 -55
-14z"/>
<path d="M3906 3994 c-9 -8 -16 -22 -16 -30 0 -11 -9 -13 -42 -8 l-43 5 28
-25 c15 -14 35 -26 43 -26 9 0 14 -7 12 -17 -5 -27 29 -27 43 -1 7 13 16 44
19 71 6 40 4 47 -11 47 -10 0 -25 -7 -33 -16z"/>
<path d="M4180 3995 c7 -8 17 -12 22 -9 6 4 5 10 -3 15 -22 14 -33 10 -19 -6z"/>
<path d="M2317 3993 c-4 -3 -7 -11 -7 -17 0 -6 5 -5 12 2 6 6 9 14 7 17 -3 3
-9 2 -12 -2z"/>
<path d="M4088 3973 c7 -3 16 -2 19 1 4 3 -2 6 -13 5 -11 0 -14 -3 -6 -6z"/>
<path d="M4345 3964 c-14 -11 -16 -18 -7 -21 30 -11 8 -23 -38 -19 -30 2 -47
-1 -43 -6 3 -6 -11 -8 -38 -5 -24 3 -36 4 -26 1 36 -11 7 -32 -35 -25 -5 0 -8
-5 -8 -13 0 -8 -5 -16 -11 -18 -8 -3 -9 -10 -2 -23 14 -27 6 -45 -20 -45 -12
0 -35 -9 -51 -19 -16 -11 -35 -17 -42 -14 -7 3 -18 2 -23 -1 -14 -9 -2 -36 15
-36 8 0 14 -5 14 -11 0 -5 3 -8 8 -5 14 8 37 -19 40 -49 2 -20 0 -26 -6 -17
-12 18 -34 -10 -34 -44 0 -20 -5 -25 -22 -23 -35 3 -56 -11 -54 -37 3 -29 23
-31 73 -7 23 11 35 24 35 37 0 26 17 78 47 143 41 90 125 142 227 143 47 0 57
3 52 15 -3 8 -8 37 -12 65 -7 55 -10 57 -39 34z"/>
<path d="M4770 3969 c0 -8 9 -54 21 -104 13 -60 22 -144 26 -253 l6 -164 -26
-24 c-14 -13 -35 -24 -46 -24 -11 0 -37 -9 -56 -20 -20 -11 -41 -17 -47 -14
-6 4 -8 2 -4 -4 3 -6 -4 -14 -16 -18 -13 -3 -35 -15 -50 -25 -14 -11 -38 -19
-52 -19 -14 0 -26 -4 -26 -10 0 -5 -8 -10 -17 -10 -9 0 -24 -7 -33 -15 -10 -9
-30 -18 -46 -21 -16 -3 -31 -8 -34 -12 -5 -7 -88 -48 -325 -162 -55 -26 -161
-78 -235 -114 -75 -36 -139 -66 -142 -66 -3 0 -53 -22 -111 -50 -58 -27 -110
-50 -117 -50 -6 0 -18 -7 -26 -15 -9 -8 -27 -18 -42 -22 -15 -3 -44 -17 -64
-31 -21 -13 -42 -21 -49 -16 -7 4 -10 3 -6 -3 3 -5 -11 -15 -31 -23 -20 -7
-53 -23 -72 -35 -19 -12 -41 -20 -47 -18 -7 3 -13 0 -13 -6 0 -6 -5 -11 -11
-11 -6 0 -66 -27 -133 -59 -143 -70 -299 -144 -306 -146 -3 0 -54 -25 -115
-54 -60 -29 -125 -59 -142 -67 -18 -8 -33 -21 -33 -29 0 -8 -4 -15 -10 -15 -5
0 -10 4 -10 9 0 5 -13 11 -30 14 -16 4 -38 16 -47 27 -18 21 -33 26 -33 11 0
-5 15 -18 33 -30 17 -11 41 -28 53 -39 11 -11 34 -27 50 -36 16 -9 47 -27 69
-40 22 -13 75 -41 117 -62 42 -21 75 -41 72 -46 -3 -4 1 -5 9 -2 8 3 21 -2 30
-10 9 -9 23 -13 32 -10 10 4 15 2 13 -7 -2 -8 13 -18 37 -24 22 -6 47 -14 55
-18 78 -32 273 -57 450 -57 265 1 522 63 743 179 76 40 222 135 267 174 93 80
214 202 274 277 32 41 137 203 162 252 80 158 183 505 154 523 -5 3 -11 -7
-13 -22 -3 -22 -4 -20 -6 11 -1 30 2 37 14 32 8 -3 15 -4 15 -3 1 1 3 38 6 82
3 44 7 86 9 93 2 6 -2 12 -10 12 -12 0 -15 16 -15 73 0 39 -7 110 -15 157 -9
47 -18 102 -20 123 -3 21 -8 44 -12 50 -4 7 -8 18 -9 25 -3 20 -14 28 -14 11z
m77 -511 c-2 -13 -4 -5 -4 17 -1 22 1 32 4 23 2 -10 2 -28 0 -40z m-37 -103
c0 -27 -35 -95 -49 -95 -10 0 -11 -3 -2 -14 10 -12 5 -14 -28 -10 -42 4 -64
-15 -54 -43 3 -7 0 -13 -6 -13 -6 0 -11 6 -12 13 0 9 -2 9 -6 0 -3 -9 -14 -11
-31 -6 -23 5 -25 4 -15 -9 11 -12 8 -14 -17 -10 -21 3 -61 -11 -144 -52 -63
-31 -117 -60 -121 -66 -3 -5 -12 -7 -20 -3 -8 3 -15 0 -15 -6 0 -6 -6 -11 -14
-11 -7 0 -34 -11 -60 -25 -26 -14 -54 -25 -62 -25 -7 0 -14 -3 -14 -8 0 -4
-15 -13 -32 -20 -18 -8 -44 -18 -56 -23 -13 -5 -26 -18 -29 -29 -4 -15 -11
-18 -29 -14 -15 4 -24 2 -24 -6 0 -6 -5 -8 -12 -4 -8 5 -9 2 -5 -9 7 -19 -17
-24 -28 -7 -4 6 -11 7 -17 4 -6 -4 -5 -10 3 -15 12 -7 11 -9 -1 -10 -8 -1 -23
-1 -32 0 -10 1 -18 -3 -18 -8 0 -6 -7 -11 -15 -11 -8 0 -40 -13 -72 -29 -32
-16 -89 -44 -128 -62 -38 -18 -77 -41 -86 -51 -9 -10 -23 -16 -32 -12 -8 3
-33 -6 -56 -20 -22 -14 -45 -26 -50 -26 -5 0 -42 -16 -83 -36 -40 -20 -98 -48
-128 -63 -30 -14 -56 -29 -58 -33 -2 -5 -10 -8 -18 -8 -8 0 -13 -6 -12 -12 2
-8 -5 -12 -17 -10 -12 2 -16 0 -9 -5 6 -4 16 -18 22 -29 10 -18 9 -23 -7 -27
-11 -3 -31 -27 -46 -53 -14 -27 -57 -98 -94 -159 -53 -84 -67 -114 -60 -127 5
-10 15 -15 22 -12 7 2 46 57 86 122 53 84 75 129 79 160 4 37 8 43 26 40 14
-2 21 -11 21 -28 1 -14 2 -51 3 -82 1 -32 6 -58 11 -58 15 0 17 31 6 100 -13
84 -13 132 1 137 7 2 10 -6 6 -24 -5 -25 -3 -26 11 -15 13 11 25 11 70 -1 50
-13 57 -13 73 2 17 15 17 15 5 -1 -15 -21 -12 -23 57 -32 47 -7 112 1 112 14
0 4 -35 15 -77 25 -184 39 -227 54 -210 71 3 4 28 8 54 9 61 3 252 96 260 126
3 10 14 19 24 19 17 0 19 -9 20 -82 1 -79 1 -81 14 -53 25 53 30 97 12 106 -9
6 -13 17 -10 30 4 13 8 17 13 9 10 -17 156 59 199 104 62 64 87 35 28 -31 -18
-21 -48 -58 -67 -83 -19 -25 -37 -47 -40 -50 -29 -28 -90 -102 -90 -109 0 -13
61 24 112 69 40 34 136 146 170 199 10 14 18 36 18 47 0 21 22 38 34 27 3 -4
6 -48 6 -100 0 -55 4 -93 10 -93 6 0 10 9 10 19 0 11 4 22 8 25 10 6 9 36 -2
54 -4 7 -2 19 4 27 8 9 8 15 2 15 -6 0 -10 20 -10 45 0 32 4 45 14 45 8 0 14
-4 14 -10 0 -5 -4 -10 -10 -10 -5 0 -10 -4 -10 -10 0 -5 9 -10 20 -10 13 0 18
5 14 15 -4 10 0 15 11 15 11 0 15 -5 12 -15 -4 -8 -2 -17 3 -20 6 -4 10 1 10
10 0 15 3 14 30 -1 21 -13 26 -20 17 -26 -7 -5 0 -8 18 -7 17 0 40 -2 53 -6
42 -14 22 10 -26 29 -96 37 -113 47 -110 64 2 11 15 16 48 17 55 1 190 69 205
103 5 12 17 22 25 22 13 0 15 -16 13 -100 -1 -59 2 -100 7 -100 6 0 10 35 11
78 1 54 3 69 9 52 7 -23 8 -22 9 10 2 47 5 51 90 95 40 21 82 51 94 67 23 31
47 37 47 12 0 -14 -102 -169 -120 -184 -4 -3 -26 -34 -50 -70 -24 -36 -53 -74
-66 -85 -12 -11 -26 -31 -29 -45 -9 -27 -28 -50 -44 -50 -6 0 -30 -6 -53 -14
-24 -7 -90 -28 -148 -46 -108 -33 -136 -45 -327 -136 -61 -30 -122 -54 -135
-54 -22 0 -60 -28 -128 -94 -14 -13 -39 -33 -57 -43 -28 -17 -56 -40 -215
-180 -27 -24 -53 -43 -58 -43 -6 0 -10 -6 -10 -14 0 -7 -7 -19 -15 -26 -22
-18 -18 -30 10 -30 17 0 54 26 117 83 173 154 288 235 470 331 204 108 392
174 698 247 25 5 54 19 66 30 24 23 44 25 44 4 0 -27 -104 -159 -205 -261 -85
-86 -173 -159 -251 -211 -11 -7 -37 -25 -59 -40 -64 -43 -270 -132 -380 -163
-167 -49 -294 -63 -500 -57 -125 4 -208 12 -273 26 -96 20 -214 55 -244 72
-10 5 -26 9 -37 9 -10 0 -24 6 -31 14 -6 8 -21 16 -33 18 -14 2 -22 10 -22 23
0 17 6 20 40 17 34 -3 73 12 247 97 117 57 214 110 225 124 10 13 29 29 41 36
12 7 20 17 16 22 -10 17 -65 4 -141 -34 -40 -20 -73 -34 -73 -31 0 2 -17 -6
-37 -19 -21 -13 -55 -30 -75 -38 -21 -7 -38 -17 -38 -23 0 -5 -3 -6 -6 -3 -4
3 -16 0 -28 -8 -11 -8 -31 -15 -44 -15 -13 0 -21 -4 -18 -8 3 -5 -24 -21 -60
-37 -36 -16 -69 -34 -74 -40 -10 -12 -90 -7 -90 6 0 5 -6 9 -14 9 -16 0 -29
27 -20 41 3 5 15 7 27 4 15 -4 159 59 477 211 250 119 493 234 540 256 47 22
131 62 188 89 56 27 150 72 210 100 59 28 154 74 212 101 178 86 429 205 638
304 51 24 95 51 98 59 8 20 44 19 44 0z m-45 -164 c9 -16 -27 -144 -46 -161
-15 -14 -49 -103 -49 -130 0 -7 -14 -41 -31 -76 -35 -75 -66 -109 -85 -93 -8
7 -33 5 -79 -6 -118 -27 -148 -16 -76 30 26 16 72 70 135 159 94 132 121 180
111 195 -7 13 21 45 33 37 6 -3 10 -24 9 -46 -2 -22 0 -40 4 -40 7 0 19 51 19
83 0 20 26 57 41 57 4 0 10 -4 14 -9z m-875 -367 c0 -3 -7 -12 -15 -20 -12
-13 -15 -13 -15 -1 0 7 3 17 7 20 8 8 23 9 23 1z"/>
<path d="M4230 2756 c19 -17 70 -30 70 -17 0 9 -52 31 -74 31 -5 0 -4 -6 4
-14z"/>
<path d="M3158 2185 c-3 -6 -3 -28 2 -50 5 -31 9 -36 15 -22 8 20 -7 88 -17
72z"/>
<path d="M2233 3915 c-26 -25 -52 -45 -58 -45 -5 0 -11 -14 -12 -32 -1 -17 -8
-35 -15 -39 -8 -5 -4 -7 10 -6 13 1 28 10 34 20 7 13 13 15 22 8 14 -12 106
61 106 85 0 24 20 16 67 -26 25 -22 50 -40 54 -40 12 0 -2 34 -18 43 -7 5 -11
12 -8 17 3 5 -3 11 -14 15 -10 3 -26 14 -36 25 -32 35 -77 26 -132 -25z"/>
<path d="M4138 3953 c7 -3 16 -2 19 1 4 3 -2 6 -13 5 -11 0 -14 -3 -6 -6z"/>
<path d="M4135 3920 c3 -5 10 -10 16 -10 5 0 9 5 9 10 0 6 -7 10 -16 10 -8 0
-12 -4 -9 -10z"/>
<path d="M4002 3899 c-17 -26 -17 -26 33 -32 44 -7 95 7 95 25 0 12 -17 17
-71 22 -37 3 -48 0 -57 -15z"/>
<path d="M4457 3894 c-27 -15 -29 -34 -3 -34 8 0 24 -8 37 -19 26 -21 47 -14
81 24 25 29 22 40 -12 42 -21 2 -34 -4 -43 -17 -14 -24 -23 -25 -31 -4 -3 8
-2 12 3 9 5 -3 12 -1 16 5 9 15 -16 12 -48 -6z"/>
<path d="M1222 3887 c-17 -20 -5 -27 49 -27 48 0 74 14 42 24 -56 15 -80 16
-91 3z"/>
<path d="M2100 3880 c0 -9 5 -21 12 -28 9 -9 8 -12 -6 -12 -9 0 -14 -4 -11
-10 20 -32 38 7 19 41 -8 15 -13 18 -14 9z"/>
<path d="M1477 3859 c-10 -6 -24 -8 -32 -5 -8 3 -16 0 -19 -7 -5 -9 -7 -9 -12
0 -4 10 -9 9 -21 -2 -9 -9 -23 -13 -34 -10 -11 4 -19 2 -19 -5 0 -6 5 -8 10
-5 6 4 10 -7 10 -25 0 -25 -4 -31 -15 -26 -8 3 -41 8 -73 12 -46 5 -61 3 -71
-10 -11 -13 -11 -16 0 -16 12 0 12 -2 1 -9 -16 -10 50 -27 112 -30 21 -1 47
-6 57 -12 13 -7 26 -6 40 1 19 11 44 9 83 -6 11 -4 16 -1 16 11 0 27 -22 40
-74 42 -99 3 -73 48 28 48 61 0 61 0 63 30 1 17 0 24 -3 17 -5 -10 -8 -10 -18
2 -8 11 -15 13 -29 5z"/>
<path d="M2460 3860 c0 -5 5 -10 11 -10 5 0 7 -4 4 -10 -3 -5 1 -10 9 -10 14
0 14 3 4 20 -14 21 -28 27 -28 10z"/>
<path d="M5141 3828 c-87 -10 -93 -13 -87 -45 2 -16 5 -32 6 -38 0 -5 8 2 16
18 12 23 21 27 52 26 20 -1 56 1 80 6 40 7 42 7 42 -18 0 -18 -10 -31 -36 -46
-45 -27 -43 -55 3 -59 24 -2 39 3 58 22 23 23 35 66 17 66 -4 0 -12 13 -18 29
-15 37 -53 49 -133 39z"/>
<path d="M4627 3808 c-10 -11 -17 -22 -14 -24 2 -2 12 5 22 16 23 26 16 33 -8
8z"/>
<path d="M2556 3805 c-3 -9 0 -15 9 -15 16 0 20 16 6 24 -5 3 -11 -1 -15 -9z"/>
<path d="M2080 3800 c0 -6 7 -10 15 -10 8 0 15 2 15 4 0 2 -7 6 -15 10 -8 3
-15 1 -15 -4z"/>
<path d="M2454 3785 c-3 -11 -7 -23 -8 -27 0 -4 -17 -29 -37 -55 -20 -26 -41
-58 -48 -70 -7 -13 -21 -23 -34 -23 -16 0 -18 -3 -8 -9 9 -6 12 -22 10 -47 -4
-34 -1 -39 18 -40 19 -2 21 2 16 28 -5 27 -4 30 15 24 18 -6 28 4 68 63 35 52
45 77 41 96 -3 21 0 28 19 35 36 14 30 37 -10 42 -28 3 -36 0 -42 -17z"/>
<path d="M1308 3793 c7 -3 16 -2 19 1 4 3 -2 6 -13 5 -11 0 -14 -3 -6 -6z"/>
<path d="M3056 3791 c-3 -5 -8 -78 -12 -162 -3 -84 -10 -161 -15 -171 -6 -12
-6 -18 0 -18 6 0 25 -14 43 -32 18 -18 34 -26 36 -20 2 7 -4 19 -12 28 -9 8
-16 19 -16 24 0 5 -7 7 -16 3 -13 -5 -15 -2 -9 18 4 13 13 29 21 35 8 6 14 22
13 35 l-1 24 -8 -25 c-6 -20 -8 -14 -9 28 -1 40 2 52 14 52 18 0 21 46 3 53
-10 4 -10 6 0 6 14 1 17 71 2 71 -5 0 -10 7 -10 15 0 8 5 15 10 15 13 0 59
-28 85 -52 28 -25 79 -69 112 -95 15 -13 80 -64 143 -116 63 -51 136 -108 162
-126 26 -18 49 -39 52 -47 6 -17 66 -48 74 -39 4 4 -5 17 -19 28 -22 18 -25
26 -18 45 4 12 13 22 19 22 5 0 10 5 10 11 0 6 -7 9 -15 5 -9 -3 -15 0 -15 9
0 8 4 15 8 15 5 0 9 7 9 15 0 8 -5 15 -10 15 -6 0 -8 41 -4 112 4 71 2 107 -3
98 -7 -11 -10 -7 -10 17 0 31 -14 52 -23 36 -3 -5 -1 -78 4 -163 5 -85 7 -160
4 -167 -5 -16 -61 2 -69 23 -3 8 -11 14 -17 14 -6 0 -22 10 -36 23 -14 12 -33
29 -42 37 -9 8 -40 33 -69 55 -28 21 -52 45 -52 52 0 7 -6 10 -14 7 -7 -3 -16
2 -19 10 -4 9 -14 16 -23 16 -11 0 -14 5 -10 16 3 9 6 20 6 25 0 13 24 11 53
-4 29 -15 215 -15 226 0 3 5 14 12 24 16 18 7 23 23 10 30 -5 2 -84 2 -178 -2
-154 -5 -170 -8 -169 -23 2 -21 0 -22 -18 -5 -7 6 -40 32 -73 56 -33 25 -61
48 -63 53 -5 11 -59 10 -66 -1z m31 -93 c-3 -8 -6 -5 -6 6 -1 11 2 17 5 13 3
-3 4 -12 1 -19z"/>
<path d="M4646 3785 c-3 -8 -13 -15 -21 -15 -9 0 -13 -4 -10 -10 3 -5 1 -10
-4 -10 -6 0 -11 5 -11 11 0 5 -4 8 -9 5 -5 -4 -5 -18 1 -34 10 -27 13 -28 55
-22 24 4 51 13 58 21 13 12 10 18 -19 41 -27 22 -35 24 -40 13z"/>
<path d="M2186 3783 c-4 -4 -21 -6 -39 -5 -18 1 -37 -1 -43 -5 -8 -5 -14 -60
-18 -148 -4 -82 -11 -142 -17 -146 -8 -4 -7 -8 2 -12 12 -4 11 -7 -1 -16 -11
-8 -11 -11 -2 -11 10 0 11 -16 6 -67 -6 -66 -6 -67 12 -50 13 12 19 36 22 87
2 38 8 68 12 65 19 -12 28 188 11 229 -6 16 -10 29 -9 30 2 1 20 11 41 21 20
11 37 23 37 27 0 10 -5 10 -14 1z m-59 -170 c-3 -10 -5 -2 -5 17 0 19 2 27 5
18 2 -10 2 -26 0 -35z m0 -85 c-3 -7 -5 -2 -5 12 0 14 2 19 5 13 2 -7 2 -19 0
-25z"/>
<path d="M4036 3774 c-5 -14 -4 -15 9 -4 17 14 19 20 6 20 -5 0 -12 -7 -15
-16z"/>
<path d="M4980 3756 c0 -9 5 -16 10 -16 6 0 10 4 10 9 0 6 -4 13 -10 16 -5 3
-10 -1 -10 -9z"/>
<path d="M2041 3743 c-1 -6 -14 -16 -30 -21 -23 -8 -32 -20 -41 -53 -6 -23 -9
-50 -7 -60 3 -11 1 -22 -4 -25 -5 -3 -10 -24 -9 -47 0 -72 -1 -75 -33 -94 -18
-11 -75 -34 -127 -52 -155 -53 -163 -57 -157 -94 17 -101 21 -118 29 -123 15
-10 22 4 9 19 -15 19 -27 107 -13 107 5 0 12 -6 15 -14 6 -15 1 -17 222 67
l90 34 1 42 c1 23 4 44 7 47 3 3 2 17 -3 30 -6 15 -6 26 1 30 6 3 9 24 6 45
-2 21 0 39 5 39 5 0 8 8 7 18 -3 24 11 52 26 52 21 0 26 15 16 42 -6 12 -10
18 -10 11z"/>
<path d="M5104 3735 c-4 -10 -13 -13 -25 -10 -11 4 -19 2 -19 -4 0 -6 -11 -11
-24 -11 -26 0 -51 -24 -41 -40 6 -10 122 -14 148 -4 13 5 13 9 1 32 -8 15 -14
33 -14 40 0 17 -19 15 -26 -3z"/>
<path d="M2162 3728 c7 -19 38 -22 38 -4 0 10 -9 16 -21 16 -12 0 -19 -5 -17
-12z"/>
<path d="M2746 3713 c-9 -30 -5 -197 5 -182 6 9 9 -6 9 -41 0 -55 0 -55 -45
-83 -25 -15 -50 -27 -55 -27 -6 0 -10 -4 -10 -9 0 -5 -9 -11 -20 -14 -15 -4
-19 -13 -18 -34 1 -15 4 -32 7 -38 3 -5 4 -24 2 -42 -1 -19 2 -33 9 -33 16 0
29 42 19 62 -13 24 -11 28 12 28 33 0 159 81 159 102 0 10 -5 17 -11 16 -15
-4 -18 15 -25 162 -3 69 -7 131 -9 138 -6 18 -23 15 -29 -5z"/>
<path d="M2240 3708 c0 -9 5 -20 11 -23 17 -11 20 0 4 21 -13 17 -14 17 -15 2z"/>
<path d="M2197 3694 c-7 -8 22 -54 34 -54 13 0 11 34 -3 48 -13 13 -22 15 -31
6z"/>
<path d="M1204 3666 c-8 -22 3 -33 18 -18 9 9 9 15 0 24 -9 9 -13 7 -18 -6z"/>
<path d="M1456 3658 c-3 -7 -7 -26 -10 -41 -4 -15 -10 -26 -14 -23 -4 2 -61 6
-127 8 -100 2 -120 1 -122 -12 -7 -37 10 -42 162 -43 l148 -2 5 54 c2 36 0 51
-7 47 -6 -4 -11 0 -11 8 0 19 -19 21 -24 4z"/>
<path d="M1325 3651 c-6 -11 9 -23 19 -14 9 9 7 23 -3 23 -6 0 -12 -4 -16 -9z"/>
<path d="M4697 3653 c-4 -3 -7 -16 -7 -29 0 -17 -8 -24 -37 -31 -53 -12 -55
-38 -6 -53 21 -7 52 -10 68 -8 27 3 30 7 29 35 -2 33 -24 93 -35 93 -3 0 -9
-3 -12 -7z"/>
<path d="M4648 3623 c7 -3 16 -2 19 1 4 3 -2 6 -13 5 -11 0 -14 -3 -6 -6z"/>
<path d="M4853 3595 c0 -22 2 -30 4 -17 2 12 2 30 0 40 -3 9 -5 -1 -4 -23z"/>
<path d="M2244 3611 c3 -5 14 -11 25 -14 14 -3 18 -1 14 9 -3 8 -14 14 -25 14
-10 0 -17 -4 -14 -9z"/>
<path d="M4006 3603 c-6 -14 -5 -15 5 -6 7 7 10 15 7 18 -3 3 -9 -2 -12 -12z"/>
<path d="M5250 3613 c0 -12 -3 -12 -132 -15 -58 -2 -108 -5 -111 -8 -2 -3 -8
-31 -11 -62 l-7 -58 30 0 c37 0 48 16 27 39 -17 19 -22 56 -6 46 5 -3 7 -12 3
-20 -6 -18 1 -19 28 -4 11 5 17 14 14 18 -2 5 6 11 20 13 27 6 31 -5 16 -45
-9 -22 -7 -26 15 -31 30 -8 44 -1 44 21 0 9 15 30 32 47 28 26 33 28 36 13 2
-10 -1 -31 -7 -47 -9 -27 -8 -30 15 -36 17 -4 31 -1 42 10 15 15 15 17 -2 29
-11 8 -18 27 -19 52 -1 21 -8 40 -14 43 -7 2 -13 0 -13 -5z"/>
<path d="M2288 3513 c7 -3 16 -2 19 1 4 3 -2 6 -13 5 -11 0 -14 -3 -6 -6z"/>
<path d="M1456 3491 c-4 -5 -36 -10 -72 -10 -73 0 -73 0 -79 -29 -5 -28 13
-39 29 -16 11 15 24 16 90 11 46 -3 76 -2 76 4 0 17 -37 51 -44 40z"/>
<path d="M2288 3492 c-15 -7 -141 -187 -136 -195 2 -2 -2 -10 -8 -18 -16 -21
-26 -67 -15 -74 6 -3 15 3 20 14 6 11 21 21 33 23 30 4 130 163 123 194 -4 17
1 23 21 28 14 4 24 12 22 18 -5 13 -37 19 -60 10z"/>
<path d="M2370 3490 c0 -5 5 -10 11 -10 5 0 7 5 4 10 -3 6 -8 10 -11 10 -2 0
-4 -4 -4 -10z"/>
<path d="M4070 3475 c-8 -9 -8 -15 -2 -15 12 0 26 19 19 26 -2 2 -10 -2 -17
-11z"/>
<path d="M4610 3470 c0 -5 5 -10 11 -10 5 0 7 5 4 10 -3 6 -8 10 -11 10 -2 0
-4 -4 -4 -10z"/>
<path d="M1215 3460 c-16 -7 -12 -9 18 -9 23 -1 36 3 32 9 -7 12 -23 12 -50 0z"/>
<path d="M2390 3455 c0 -8 5 -15 11 -15 5 0 7 -5 3 -12 -4 -7 -3 -8 4 -4 7 4
12 1 12 -7 0 -31 -27 -25 -39 9 -12 34 -25 42 -36 24 -3 -5 5 -22 19 -37 15
-15 26 -31 26 -35 0 -4 9 -12 20 -18 12 -6 20 -7 20 -1 0 5 -8 12 -17 14 -14
4 -13 5 4 6 32 2 36 15 13 44 -11 14 -20 30 -20 36 0 6 -4 11 -10 11 -5 0 -10
-7 -10 -15z"/>
<path d="M4665 3460 c-4 -6 -11 -8 -16 -5 -15 10 -10 -5 7 -23 15 -15 17 -14
30 3 13 18 11 35 -6 35 -5 0 -12 -5 -15 -10z"/>
<path d="M1281 3450 c-1 -12 -10 -15 -42 -12 -39 4 -58 -6 -59 -30 0 -11 108
-10 114 1 4 5 2 20 -3 33 -6 13 -10 16 -10 8z"/>
<path d="M4041 3441 c-8 -5 -20 -7 -28 -4 -7 3 -13 0 -13 -5 0 -16 21 -26 29
-15 3 5 15 15 26 21 11 6 16 11 10 12 -5 0 -16 -4 -24 -9z"/>
<path d="M4090 3440 c0 -5 -4 -10 -10 -10 -5 0 -19 -9 -30 -20 -14 -14 -18
-27 -14 -50 4 -16 8 -30 11 -30 14 0 43 24 67 55 24 31 25 37 12 50 -17 17
-36 20 -36 5z"/>
<path d="M4598 3443 c7 -3 16 -2 19 1 4 3 -2 6 -13 5 -11 0 -14 -3 -6 -6z"/>
<path d="M2121 3424 c0 -11 3 -14 6 -6 3 7 2 16 -1 19 -3 4 -6 -2 -5 -13z"/>
<path d="M4529 3383 l-24 -28 28 24 c25 23 32 31 24 31 -2 0 -14 -12 -28 -27z"/>
<path d="M1356 3391 c-32 -5 -41 -11 -49 -34 -12 -38 -2 -45 26 -19 19 18 35
22 95 22 40 0 72 4 72 8 0 30 -50 38 -144 23z"/>
<path d="M2590 3369 c0 -5 5 -7 10 -4 6 3 10 8 10 11 0 2 -4 4 -10 4 -5 0 -10
-5 -10 -11z"/>
<path d="M2446 3362 c-7 -12 23 -47 33 -36 4 5 0 16 -10 26 -10 10 -20 14 -23
10z"/>
<path d="M3122 3365 c4 -5 4 -13 -1 -19 -12 -16 -31 -106 -29 -143 1 -22 -6
-38 -20 -50 -13 -11 -28 -43 -36 -78 -8 -33 -20 -79 -27 -103 -15 -56 -5 -64
30 -21 41 48 69 132 52 153 -12 14 -10 16 13 16 23 0 26 3 20 25 -4 18 -2 25
9 25 8 0 17 -6 20 -14 8 -20 58 -26 96 -10 18 8 42 14 52 14 11 0 19 7 19 15
0 11 -11 15 -42 15 -74 0 -178 13 -178 21 0 5 16 24 35 44 20 19 33 40 30 45
-4 6 -11 8 -16 5 -5 -4 -9 -1 -9 4 0 16 36 13 54 -4 8 -8 19 -15 25 -15 6 0
11 -4 11 -10 0 -5 9 -10 19 -10 10 0 21 -7 25 -15 3 -8 10 -15 16 -15 5 0 10
7 10 15 0 8 -7 15 -15 15 -8 0 -15 4 -15 9 0 4 -25 25 -55 45 -30 20 -55 34
-55 31 0 -3 -10 0 -22 6 -13 6 -20 8 -16 4z"/>
<path d="M4220 3345 c-10 -13 -15 -13 -21 -3 -4 7 -11 9 -15 5 -4 -3 -2 -13 4
-20 7 -8 9 -17 5 -20 -11 -12 -23 -8 -23 7 0 12 -5 12 -32 -2 l-33 -16 27 -11
c15 -6 39 -21 53 -33 14 -12 29 -22 35 -22 14 0 33 40 40 88 6 36 4 42 -10 42
-10 0 -23 -7 -30 -15z"/>
<path d="M4980 3346 c0 -14 77 -27 113 -18 45 11 -7 32 -79 32 -23 0 -34 -5
-34 -14z"/>
<path d="M2427 3322 c6 -24 32 -57 39 -50 10 11 -6 47 -26 58 -15 8 -17 6 -13
-8z"/>
<path d="M4430 3325 c-10 -12 -10 -15 3 -15 8 0 17 7 21 15 3 8 2 15 -3 15 -5
0 -14 -7 -21 -15z"/>
<path d="M5237 3329 c-9 -5 -23 -7 -30 -4 -6 4 -3 -1 7 -9 19 -15 17 -16 -31
-16 -32 0 -53 5 -56 13 -5 11 -11 -18 -8 -36 1 -5 -32 -7 -73 -6 -41 2 -78 1
-81 -3 -4 -4 19 -15 50 -24 54 -17 58 -17 70 -1 16 22 21 21 29 -5 l6 -23 16
24 c15 20 22 22 58 16 86 -14 91 -13 94 24 2 21 0 31 -7 26 -7 -3 -11 2 -11
14 0 23 -7 25 -33 10z"/>
<path d="M4528 3323 c6 -2 18 -2 25 0 6 3 1 5 -13 5 -14 0 -19 -2 -12 -5z"/>
<path d="M5165 3320 c-3 -5 1 -10 10 -10 9 0 13 5 10 10 -3 6 -8 10 -10 10 -2
0 -7 -4 -10 -10z"/>
<path d="M1415 3309 c-27 -4 -80 -5 -116 -2 -78 6 -109 -6 -109 -42 0 -21 5
-25 32 -25 62 0 263 22 271 30 8 7 -13 51 -23 49 -3 -1 -27 -5 -55 -10z"/>
<path d="M4328 3313 c6 -2 18 -2 25 0 6 3 1 5 -13 5 -14 0 -19 -2 -12 -5z"/>
<path d="M2051 3274 c0 -11 3 -14 6 -6 3 7 2 16 -1 19 -3 4 -6 -2 -5 -13z"/>
<path d="M2115 3279 c-4 -6 -5 -12 -2 -15 2 -3 7 2 10 11 7 17 1 20 -8 4z"/>
<path d="M2481 3283 c0 -6 -4 -20 -7 -30 -5 -14 -4 -15 5 -7 7 7 11 20 8 30
-3 11 -5 14 -6 7z"/>
<path d="M2510 3269 c0 -5 5 -7 10 -4 6 3 10 8 10 11 0 2 -4 4 -10 4 -5 0 -10
-5 -10 -11z"/>
<path d="M4320 3259 c0 -5 5 -7 10 -4 6 3 10 8 10 11 0 2 -4 4 -10 4 -5 0 -10
-5 -10 -11z"/>
<path d="M2071 3244 c0 -11 3 -14 6 -6 3 7 2 16 -1 19 -3 4 -6 -2 -5 -13z"/>
<path d="M3727 3249 c-6 -4 -77 -17 -157 -29 -201 -30 -188 -26 -192 -58 -2
-19 -8 -27 -22 -25 -19 1 -29 -5 -69 -43 -12 -11 -48 -42 -80 -69 -33 -27 -78
-66 -100 -87 -23 -21 -47 -38 -53 -38 -6 0 -19 -9 -29 -20 -10 -11 -14 -20
-10 -20 5 0 4 -5 -3 -12 -17 -17 -15 -28 6 -28 9 0 23 9 30 20 7 12 18 20 25
19 26 -3 37 2 91 46 33 27 53 51 50 59 -3 8 3 16 16 19 11 3 19 11 18 19 -2 8
5 12 17 10 23 -3 65 36 69 64 3 23 42 38 50 19 3 -8 6 -79 7 -157 1 -129 2
-141 16 -123 13 17 14 47 10 182 -3 90 -2 165 3 168 4 3 7 -3 6 -13 0 -9 4
-16 9 -16 113 15 435 70 435 74 0 4 -17 16 -39 28 -37 21 -77 25 -104 11z"/>
<path d="M2090 3241 c0 -6 5 -13 10 -16 6 -3 10 1 10 9 0 9 -4 16 -10 16 -5 0
-10 -4 -10 -9z"/>
<path d="M4340 3240 c0 -5 5 -10 10 -10 6 0 10 5 10 10 0 6 -4 10 -10 10 -5 0
-10 -4 -10 -10z"/>
<path d="M2548 3233 c6 -2 18 -2 25 0 6 3 1 5 -13 5 -14 0 -19 -2 -12 -5z"/>
<path d="M1445 3190 c-33 -18 -51 -34 -53 -49 -2 -14 -9 -21 -17 -17 -7 2 -16
-1 -18 -8 -7 -17 42 -9 65 11 9 8 35 17 57 20 49 7 73 28 42 38 -11 3 -21 12
-23 19 -2 10 -16 6 -53 -14z"/>
<path d="M2734 3196 c-3 -9 -12 -12 -22 -8 -15 5 -15 4 1 -12 9 -9 17 -31 17
-47 0 -19 4 -28 11 -24 17 11 29 55 23 81 -7 27 -22 32 -30 10z"/>
<path d="M2105 3190 c3 -5 8 -10 11 -10 2 0 4 5 4 10 0 6 -5 10 -11 10 -5 0
-7 -4 -4 -10z"/>
<path d="M5213 3179 c-5 -17 -11 -19 -37 -13 -17 3 -36 10 -43 16 -6 5 -12 5
-15 0 -2 -6 -30 -6 -72 0 -75 10 -96 7 -96 -17 0 -18 -1 -18 105 -39 183 -35
189 -36 203 -18 14 19 17 86 2 77 -5 -3 -10 -1 -10 4 0 20 -32 11 -37 -10z"/>
<path d="M5178 3183 c7 -3 16 -2 19 1 4 3 -2 6 -13 5 -11 0 -14 -3 -6 -6z"/>
<path d="M2377 3173 c18 -2 50 -2 70 0 21 2 7 4 -32 4 -38 0 -55 -2 -38 -4z"/>
<path d="M1227 3163 c-9 -8 -9 -43 0 -43 17 0 113 36 113 43 0 9 -104 10 -113
0z"/>
<path d="M1968 3163 c7 -3 16 -2 19 1 4 3 -2 6 -13 5 -11 0 -14 -3 -6 -6z"/>
<path d="M3345 3160 c-3 -5 -1 -10 4 -10 6 0 11 5 11 10 0 6 -2 10 -4 10 -3 0
-8 -4 -11 -10z"/>
<path d="M2355 3150 l-40 -7 43 -2 c23 0 42 4 42 9 0 6 -1 9 -2 9 -2 -1 -21
-5 -43 -9z"/>
<path d="M2670 3150 c0 -5 5 -10 10 -10 6 0 10 5 10 10 0 6 -4 10 -10 10 -5 0
-10 -4 -10 -10z"/>
<path d="M1676 3120 c6 -36 11 -46 18 -39 2 2 -3 20 -10 39 l-14 35 6 -35z"/>
<path d="M2128 3123 c7 -3 16 -2 19 1 4 3 -2 6 -13 5 -11 0 -14 -3 -6 -6z"/>
<path d="M2178 3123 c12 -2 32 -2 45 0 12 2 2 4 -23 4 -25 0 -35 -2 -22 -4z"/>
<path d="M1960 3104 c0 -14 3 -14 15 -4 8 7 15 14 15 16 0 2 -7 4 -15 4 -8 0
-15 -7 -15 -16z"/>
<path d="M1496 3098 c-10 -6 -43 -8 -72 -6 -30 3 -54 2 -54 -2 0 -4 -20 -10
-45 -14 -63 -8 -85 -22 -85 -53 0 -26 0 -26 63 -19 88 10 240 49 245 64 2 8
-2 10 -14 5 -13 -5 -16 -3 -11 10 8 21 -4 28 -27 15z"/>
<path d="M3140 3096 c0 -9 5 -16 10 -16 6 0 10 4 10 9 0 6 -4 13 -10 16 -5 3
-10 -1 -10 -9z"/>
<path d="M2806 3093 c-3 -3 -6 -37 -6 -74 l0 -68 -57 -4 -58 -3 58 -2 c40 -1
57 -6 57 -16 0 -17 -189 -30 -272 -18 -34 5 -55 5 -51 -1 3 -5 -39 -8 -99 -6
-57 1 -109 0 -115 -4 -5 -4 -82 -6 -169 -6 -88 0 -167 -3 -177 -6 -15 -6 -17
1 -19 56 l-2 64 -3 -60 c-2 -33 -8 -64 -14 -69 -5 -6 -9 -20 -9 -32 0 -20 5
-23 68 -26 37 -1 141 0 231 4 90 3 276 9 413 13 137 3 256 9 264 12 10 3 13
11 8 22 -4 9 -8 55 -8 103 -1 47 -4 84 -8 81 -5 -2 -8 5 -8 16 0 21 -13 35
-24 24z"/>
<path d="M2745 3070 c3 -5 8 -10 11 -10 2 0 4 5 4 10 0 6 -5 10 -11 10 -5 0
-7 -4 -4 -10z"/>
<path d="M1690 3060 c0 -5 5 -10 10 -10 6 0 10 5 10 10 0 6 -4 10 -10 10 -5 0
-10 -4 -10 -10z"/>
<path d="M4974 3061 c4 -5 2 -12 -4 -16 -5 -3 -10 0 -10 7 0 9 -3 9 -10 -2 -5
-8 -9 -22 -9 -30 0 -10 3 -8 9 5 6 14 9 15 10 5 0 -12 3 -11 11 3 5 9 22 17
36 17 32 0 28 5 -10 14 -18 4 -26 3 -23 -3z"/>
<path d="M1896 3042 c7 -4 14 -16 16 -27 3 -17 5 -15 10 8 4 23 2 27 -16 27
-13 0 -16 -3 -10 -8z"/>
<path d="M1711 3013 c-1 -12 4 -25 9 -28 12 -7 12 2 0 30 -8 19 -9 19 -9 -2z"/>
<path d="M3433 2950 c0 -41 2 -58 4 -37 2 20 2 54 0 75 -2 20 -4 3 -4 -38z"/>
<path d="M5000 3010 c0 -5 5 -10 10 -10 6 0 10 5 10 10 0 6 -4 10 -10 10 -5 0
-10 -4 -10 -10z"/>
<path d="M1540 3004 c0 -7 -20 -17 -45 -23 -48 -12 -88 -48 -90 -81 -2 -25 17
-21 29 7 7 15 26 24 65 33 79 17 83 21 61 50 -11 14 -20 20 -20 14z"/>
<path d="M5169 2981 c-7 -20 -18 -31 -29 -31 -11 0 -22 -4 -25 -10 -4 -6 1 -7
12 -4 13 4 14 3 5 -4 -7 -5 -25 -7 -39 -4 -17 3 -21 7 -12 13 8 5 -4 8 -29 7
-30 0 -50 6 -65 20 -12 10 -28 17 -35 15 -7 -3 -19 1 -27 7 -18 15 -19 9 -4
-22 10 -23 91 -67 181 -99 51 -18 88 -4 113 43 19 36 19 39 3 65 -23 39 -37
40 -49 4z"/>
<path d="M5130 2990 c0 -5 5 -10 10 -10 6 0 10 5 10 10 0 6 -4 10 -10 10 -5 0
-10 -4 -10 -10z"/>
<path d="M1730 2953 c0 -12 5 -25 11 -28 17 -11 18 -2 4 25 -14 24 -14 24 -15
3z"/>
<path d="M3252 2958 c2 -6 10 -14 16 -16 7 -2 10 2 6 12 -7 18 -28 22 -22 4z"/>
<path d="M2248 2953 c7 -3 16 -2 19 1 4 3 -2 6 -13 5 -11 0 -14 -3 -6 -6z"/>
<path d="M2318 2953 c18 -2 45 -2 60 0 15 2 0 4 -33 4 -33 0 -45 -2 -27 -4z"/>
<path d="M2030 2946 c0 -2 11 -6 25 -8 14 -3 25 -1 25 3 0 5 -11 9 -25 9 -14
0 -25 -2 -25 -4z"/>
<path d="M2498 2943 c12 -2 32 -2 45 0 12 2 2 4 -23 4 -25 0 -35 -2 -22 -4z"/>
<path d="M2253 2933 c9 -2 23 -2 30 0 6 3 -1 5 -18 5 -16 0 -22 -2 -12 -5z"/>
<path d="M2640 2930 c0 -5 7 -10 16 -10 8 0 12 5 9 10 -3 6 -10 10 -16 10 -5
0 -9 -4 -9 -10z"/>
<path d="M1360 2921 c0 -5 5 -13 10 -16 6 -3 10 -2 10 4 0 5 -4 13 -10 16 -5
3 -10 2 -10 -4z"/>
<path d="M2400 2920 c0 -5 5 -10 10 -10 6 0 10 5 10 10 0 6 -4 10 -10 10 -5 0
-10 -4 -10 -10z"/>
<path d="M2008 2913 c6 -2 18 -2 25 0 6 3 1 5 -13 5 -14 0 -19 -2 -12 -5z"/>
<path d="M1320 2899 c0 -5 5 -7 10 -4 6 3 10 8 10 11 0 2 -4 4 -10 4 -5 0 -10
-5 -10 -11z"/>
<path d="M1566 2902 c-9 -14 -132 -46 -151 -38 -9 3 -14 2 -10 -3 3 -5 -14
-16 -37 -23 -37 -13 -43 -19 -46 -46 -4 -37 9 -40 73 -16 22 9 64 22 94 29 29
8 60 21 70 30 9 9 24 21 34 28 18 12 18 13 -1 31 -11 9 -23 13 -26 8z"/>
<path d="M1346 2875 c4 -8 10 -15 15 -15 4 0 6 7 3 15 -4 8 -10 15 -15 15 -4
0 -6 -7 -3 -15z"/>
<path d="M1760 2888 c0 -3 7 -19 15 -34 8 -16 15 -22 15 -14 -1 8 -7 24 -15
34 -8 11 -15 17 -15 14z"/>
<path d="M3315 2880 c-3 -5 -1 -10 4 -10 6 0 11 5 11 10 0 6 -2 10 -4 10 -3 0
-8 -4 -11 -10z"/>
<path d="M2980 2859 c0 -5 5 -7 10 -4 6 3 10 8 10 11 0 2 -4 4 -10 4 -5 0 -10
-5 -10 -11z"/>
<path d="M4895 2850 c3 -5 13 -10 21 -10 8 0 12 5 9 10 -3 6 -13 10 -21 10 -8
0 -12 -4 -9 -10z"/>
<path d="M2950 2830 c0 -5 6 -10 14 -10 8 0 18 5 21 10 3 6 -3 10 -14 10 -12
0 -21 -4 -21 -10z"/>
<path d="M4867 2823 c-4 -3 -7 -11 -7 -17 0 -6 5 -5 12 2 6 6 9 14 7 17 -3 3
-9 2 -12 -2z"/>
<path d="M4967 2813 c9 -7 22 -13 27 -13 6 0 5 4 -3 9 -11 7 -10 10 5 14 10 2
4 4 -14 3 -28 -1 -30 -3 -15 -13z"/>
<path d="M1620 2785 c5 -14 10 -28 10 -30 0 -3 -26 -16 -57 -30 -32 -15 -69
-32 -83 -39 -14 -8 -42 -19 -63 -26 -27 -8 -37 -16 -33 -27 3 -8 6 -21 6 -29
0 -22 17 -18 145 37 149 64 158 71 122 99 -14 11 -27 30 -29 42 -2 12 -9 23
-16 26 -9 3 -10 -3 -2 -23z"/>
<path d="M2981 2796 c-13 -6 -19 -16 -17 -30 3 -20 8 -21 117 -20 115 2 237
28 231 50 -3 12 -304 12 -331 0z"/>
<path d="M5030 2800 c-13 -8 -12 -10 3 -10 9 0 17 5 17 10 0 12 -1 12 -20 0z"/>
<path d="M5112 2792 c-12 -9 -29 -32 -39 -51 -21 -37 -48 -56 -36 -24 6 16 5
16 -10 4 -14 -11 -20 -11 -33 0 -18 15 -119 49 -146 49 -27 0 -11 -26 25 -41
18 -7 38 -19 46 -26 7 -8 22 -11 33 -7 14 4 21 0 25 -14 6 -23 79 -48 112 -37
20 6 59 70 75 122 10 32 -25 49 -52 25z"/>
<path d="M1810 2785 c0 -8 4 -15 10 -15 5 0 7 7 4 15 -4 8 -8 15 -10 15 -2 0
-4 -7 -4 -15z"/>
<path d="M4928 2793 c6 -2 18 -2 25 0 6 3 1 5 -13 5 -14 0 -19 -2 -12 -5z"/>
<path d="M5067 2793 c-4 -3 -7 -11 -7 -17 0 -6 5 -5 12 2 6 6 9 14 7 17 -3 3
-9 2 -12 -2z"/>
<path d="M3375 2780 c-3 -5 -1 -10 4 -10 6 0 11 5 11 10 0 6 -2 10 -4 10 -3 0
-8 -4 -11 -10z"/>
<path d="M3337 2773 c-12 -12 -7 -22 8 -17 8 4 15 10 15 15 0 11 -14 12 -23 2z"/>
<path d="M4988 2763 c7 -3 16 -2 19 1 4 3 -2 6 -13 5 -11 0 -14 -3 -6 -6z"/>
<path d="M1836 2735 c4 -8 10 -15 15 -15 4 0 6 7 3 15 -4 8 -10 15 -15 15 -4
0 -6 -7 -3 -15z"/>
<path d="M1387 2703 c-4 -3 -7 -13 -7 -22 1 -13 3 -13 11 2 11 19 8 33 -4 20z"/>
<path d="M1860 2700 c0 -5 5 -10 11 -10 5 0 7 5 4 10 -3 6 -8 10 -11 10 -2 0
-4 -4 -4 -10z"/>
<path d="M1880 2671 c0 -5 5 -13 10 -16 6 -3 10 -2 10 4 0 5 -4 13 -10 16 -5
3 -10 2 -10 -4z"/>
<path d="M4780 2670 c0 -5 6 -10 14 -10 8 0 18 5 21 10 3 6 -3 10 -14 10 -12
0 -21 -4 -21 -10z"/>
<path d="M1700 2621 c0 -5 6 -12 13 -15 8 -3 0 -15 -23 -33 -19 -15 -48 -41
-65 -57 -16 -16 -47 -40 -67 -54 -38 -25 -42 -36 -29 -81 6 -22 11 -20 110 59
58 45 113 86 123 91 25 13 23 21 -15 63 -34 36 -47 44 -47 27z"/>
<path d="M4870 2619 c0 -5 5 -7 10 -4 6 3 10 8 10 11 0 2 -4 4 -10 4 -5 0 -10
-5 -10 -11z"/>
<path d="M1648 2609 c-10 -5 -15 -16 -12 -24 7 -18 27 -20 21 -2 -2 6 3 17 12
24 19 15 3 17 -21 2z"/>
<path d="M1920 2610 c0 -5 5 -10 10 -10 6 0 10 5 10 10 0 6 -4 10 -10 10 -5 0
-10 -4 -10 -10z"/>
<path d="M1220 2606 c0 -3 9 -15 21 -27 l21 -21 -4 24 c-2 19 -38 41 -38 24z"/>
<path d="M4825 2600 c-3 -5 -1 -10 4 -10 6 0 11 5 11 10 0 6 -2 10 -4 10 -3 0
-8 -4 -11 -10z"/>
<path d="M1560 2575 c-111 -41 -106 -37 -94 -69 9 -22 25 -20 63 8 19 14 46
28 62 31 31 7 36 17 17 33 -9 7 -24 6 -48 -3z"/>
<path d="M4727 2584 c-12 -12 -8 -24 8 -24 8 0 15 -4 15 -9 0 -9 38 -24 53
-22 5 1 6 -3 3 -8 -6 -10 16 -21 42 -21 15 0 15 2 2 10 -23 15 -6 12 31 -6 22
-10 26 -13 11 -10 -13 2 -21 2 -18 -1 7 -8 107 -42 123 -43 6 0 23 20 37 44
26 45 34 72 17 61 -5 -3 -12 -1 -16 5 -3 5 -18 7 -32 4 -18 -5 -24 -3 -19 4 5
8 2 10 -8 6 -12 -4 -13 -11 -6 -24 5 -9 7 -20 3 -24 -7 -7 -54 3 -67 15 -6 5
-19 9 -30 9 -12 0 -34 7 -49 15 -35 18 -90 29 -100 19z"/>
<path d="M1266 2535 c-8 -32 3 -48 23 -36 11 7 11 13 -2 36 l-14 28 -7 -28z"/>
<path d="M1970 2552 c0 -5 7 -15 15 -22 8 -7 15 -9 15 -6 0 4 -7 14 -15 22 -8
9 -15 11 -15 6z"/>
<path d="M2010 2502 c0 -5 11 -19 25 -32 14 -13 25 -19 25 -13 0 6 -7 13 -15
17 -8 3 -15 12 -15 21 0 8 -4 15 -10 15 -5 0 -10 -4 -10 -8z"/>
<path d="M4673 2490 c-13 -5 -23 -18 -23 -30 0 -11 0 -22 0 -25 0 -3 3 -5 8
-5 4 0 7 6 7 13 0 8 16 12 47 12 43 0 79 17 66 31 -11 11 -83 14 -105 4z"/>
<path d="M1300 2480 c0 -6 -4 -8 -10 -5 -5 3 -10 2 -10 -3 0 -8 22 -22 36 -22
8 0 4 29 -6 35 -5 3 -10 1 -10 -5z"/>
<path d="M1840 2452 c0 -5 3 -12 7 -15 3 -4 8 -19 9 -33 3 -24 2 -25 -11 -8
-7 11 -17 16 -21 11 -4 -4 -1 -7 6 -7 9 0 7 -5 -6 -15 -16 -13 -16 -14 -1 -9
9 3 17 1 17 -5 0 -6 -6 -11 -13 -11 -7 0 -23 -10 -34 -22 -38 -43 -64 -59 -84
-53 -14 5 -17 3 -13 -9 5 -12 1 -15 -15 -13 -11 2 -24 6 -27 10 -4 4 -13 7
-21 7 -16 0 31 -76 53 -84 27 -10 78 20 152 90 71 69 86 96 57 108 -8 3 -15
12 -15 21 0 8 -4 15 -10 15 -5 0 -10 7 -10 15 0 8 -4 15 -10 15 -5 0 -10 -4
-10 -8z"/>
<path d="M1810 2440 c0 -5 5 -10 11 -10 5 0 7 5 4 10 -3 6 -8 10 -11 10 -2 0
-4 -4 -4 -10z"/>
<path d="M2070 2444 c0 -12 81 -96 109 -112 19 -11 21 -11 14 0 -14 23 -123
122 -123 112z"/>
<path d="M1768 2433 c7 -3 16 -2 19 1 4 3 -2 6 -13 5 -11 0 -14 -3 -6 -6z"/>
<path d="M1310 2425 c0 -11 53 -85 61 -85 14 0 10 17 -5 23 -8 3 -17 19 -21
36 -4 17 -13 31 -21 31 -8 0 -14 -2 -14 -5z"/>
<path d="M1790 2410 c0 -5 -13 -7 -30 -3 -20 4 -30 2 -30 -7 0 -7 7 -10 15 -6
9 3 15 0 15 -10 0 -13 4 -12 25 3 25 19 32 33 15 33 -5 0 -10 -4 -10 -10z"/>
<path d="M4630 2402 c0 -13 35 -42 50 -42 7 0 10 -3 7 -7 -11 -10 14 -33 36
-33 11 0 35 12 54 26 18 14 43 26 56 26 23 2 47 15 47 27 0 14 -74 11 -121 -4
-43 -15 -50 -15 -78 -1 -33 18 -51 20 -51 8z"/>
<path d="M4891 2369 c-5 -13 -12 -32 -15 -41 -4 -13 -16 -18 -40 -18 -37 0
-57 -16 -32 -26 9 -3 16 -15 16 -25 0 -38 67 -14 101 37 24 37 24 50 -1 76
l-19 21 -10 -24z"/>
<path d="M1675 2360 c-3 -5 -2 -10 4 -10 5 0 13 5 16 10 3 6 2 10 -4 10 -5 0
-13 -4 -16 -10z"/>
<path d="M4590 2350 c0 -5 -7 -10 -15 -10 -8 0 -15 -4 -15 -10 0 -15 36 -12
49 3 6 8 8 17 4 20 -10 10 -23 8 -23 -3z"/>
<path d="M1645 2340 c-3 -5 -1 -10 4 -10 6 0 11 5 11 10 0 6 -2 10 -4 10 -3 0
-8 -4 -11 -10z"/>
<path d="M1380 2313 c0 -6 6 -16 14 -20 8 -4 24 -25 36 -45 12 -21 26 -38 30
-38 4 0 10 -9 13 -20 5 -20 47 -29 47 -10 0 6 -7 10 -15 10 -8 0 -15 7 -15 15
0 8 -7 15 -16 15 -9 0 -14 6 -11 13 6 15 -13 44 -28 43 -5 -1 -11 11 -13 26
-2 19 -9 26 -23 25 -10 -1 -19 -7 -19 -14z"/>
<path d="M1674 2310 c0 -13 4 -16 10 -10 7 7 7 13 0 20 -6 6 -10 3 -10 -10z"/>
<path d="M1945 2309 c-4 -6 -5 -13 -2 -16 7 -7 27 6 27 18 0 12 -17 12 -25 -2z"/>
<path d="M4605 2290 c-3 -5 -1 -10 4 -10 6 0 11 5 11 10 0 6 -2 10 -4 10 -3 0
-8 -4 -11 -10z"/>
<path d="M1917 2273 c-4 -3 -7 -11 -7 -17 0 -6 5 -5 12 2 6 6 9 14 7 17 -3 3
-9 2 -12 -2z"/>
<path d="M1960 2261 c0 -5 7 -12 16 -15 24 -9 28 -7 14 9 -14 17 -30 20 -30 6z"/>
<path d="M2002 2233 c-5 -16 -19 -39 -31 -53 -12 -14 -39 -44 -59 -67 -27 -31
-44 -43 -64 -43 -16 0 -28 -4 -28 -10 0 -5 5 -10 11 -10 5 0 8 -4 4 -9 -3 -6
4 -15 16 -21 33 -18 70 3 144 81 73 78 85 107 59 138 -25 28 -40 26 -52 -6z"/>
<path d="M4470 2256 c0 -5 64 -45 105 -65 17 -8 32 -18 35 -21 3 -4 26 -17 53
-29 32 -15 47 -29 47 -42 0 -34 36 -22 69 23 17 23 31 45 31 49 0 15 -63 22
-74 8 -16 -20 -62 -23 -69 -5 -4 9 -11 16 -16 16 -6 0 -36 16 -68 35 -48 29
-113 47 -113 31z"/>
<path d="M1865 2240 c-8 -13 29 -48 60 -56 33 -8 32 2 -6 37 -33 31 -44 35
-54 19z"/>
<path d="M1930 2240 c0 -5 5 -10 10 -10 6 0 10 5 10 10 0 6 -4 10 -10 10 -5 0
-10 -4 -10 -10z"/>
<path d="M4695 2240 c-3 -5 1 -10 9 -10 9 0 16 5 16 10 0 6 -4 10 -9 10 -6 0
-13 -4 -16 -10z"/>
<path d="M1967 2223 c-4 -3 -7 -11 -7 -17 0 -6 5 -5 12 2 6 6 9 14 7 17 -3 3
-9 2 -12 -2z"/>
<path d="M4650 2220 c0 -5 5 -10 10 -10 6 0 10 5 10 10 0 6 -4 10 -10 10 -5 0
-10 -4 -10 -10z"/>
<path d="M1804 2145 c-8 -13 -14 -32 -12 -41 4 -22 28 -31 28 -11 0 8 9 26 20
39 10 14 16 28 13 32 -13 13 -33 5 -49 -19z"/>
<path d="M5206 1711 c-10 -16 -5 -441 5 -447 16 -9 23 3 24 44 1 20 5 45 9 54
4 9 6 21 3 25 -3 5 -1 28 3 53 5 25 5 49 1 53 -5 5 -7 45 -4 89 5 97 -18 168
-41 129z"/>
<path d="M1280 1640 c0 -5 5 -10 11 -10 5 0 7 5 4 10 -3 6 -8 10 -11 10 -2 0
-4 -4 -4 -10z"/>
<path d="M5044 1634 c-19 -15 -19 -15 1 -6 11 5 27 12 35 15 13 5 13 6 -1 6
-8 1 -24 -6 -35 -15z"/>
<path d="M5105 1620 c-3 -5 -1 -10 4 -10 6 0 11 5 11 10 0 6 -2 10 -4 10 -3 0
-8 -4 -11 -10z"/>
<path d="M1351 1611 c-10 -7 -7 -9 12 -8 15 1 27 5 27 10 0 10 -22 9 -39 -2z"/>
<path d="M4920 1589 c0 -5 5 -7 10 -4 6 3 10 8 10 11 0 2 -4 4 -10 4 -5 0 -10
-5 -10 -11z"/>
<path d="M1254 1566 c4 -10 1 -25 -5 -32 -9 -11 -8 -14 5 -14 18 0 21 28 5 50
-9 12 -10 12 -5 -4z"/>
<path d="M4815 1559 c-22 -11 -32 -17 -22 -14 10 3 27 5 37 5 10 0 20 7 24 15
3 8 4 15 3 14 -1 0 -20 -9 -42 -20z"/>
<path d="M1490 1566 c0 -2 9 -6 20 -9 11 -3 18 -1 14 4 -5 9 -34 13 -34 5z"/>
<path d="M1448 1543 c7 -3 16 -2 19 1 4 3 -2 6 -13 5 -11 0 -14 -3 -6 -6z"/>
<path d="M4860 1541 c0 -6 -17 -12 -37 -14 -35 -3 -34 -4 10 -5 36 -2 47 2 47
13 0 8 -4 15 -10 15 -5 0 -10 -4 -10 -9z"/>
<path d="M1565 1530 c3 -5 8 -10 11 -10 2 0 4 5 4 10 0 6 -5 10 -11 10 -5 0
-7 -4 -4 -10z"/>
<path d="M4730 1530 c-21 -7 -21 -8 -5 -9 11 0 27 4 35 9 18 11 5 11 -30 0z"/>
<path d="M4625 1490 c-7 -12 2 -12 30 0 19 8 19 9 -2 9 -12 1 -25 -3 -28 -9z"/>
<path d="M1720 1474 c0 -8 5 -12 10 -9 6 3 10 10 10 16 0 5 -4 9 -10 9 -5 0
-10 -7 -10 -16z"/>
<path d="M1272 1450 c0 -19 2 -27 5 -17 2 9 2 25 0 35 -3 9 -5 1 -5 -18z"/>
<path d="M1681 1454 c0 -11 3 -14 6 -6 3 7 2 16 -1 19 -3 4 -6 -2 -5 -13z"/>
<path d="M4555 1460 c3 -5 12 -7 20 -3 21 7 19 13 -6 13 -11 0 -18 -4 -14 -10z"/>
<path d="M4640 1462 c0 -6 -8 -12 -17 -14 -10 -3 1 -4 25 -4 23 0 42 4 42 8 0
5 -4 8 -9 8 -5 0 -16 3 -25 6 -9 3 -16 1 -16 -4z"/>
<path d="M1748 1443 c7 -3 16 -2 19 1 4 3 -2 6 -13 5 -11 0 -14 -3 -6 -6z"/>
<path d="M4508 1443 c7 -3 16 -2 19 1 4 3 -2 6 -13 5 -11 0 -14 -3 -6 -6z"/>
<path d="M4418 1423 c-18 -3 -28 -10 -28 -21 0 -11 3 -13 8 -6 4 6 25 16 47
22 40 10 25 13 -27 5z"/>
<path d="M4668 1423 c6 -2 18 -2 25 0 6 3 1 5 -13 5 -14 0 -19 -2 -12 -5z"/>
<path d="M300 1300 c57 -55 108 -100 112 -100 5 0 8 -5 8 -11 0 -6 20 -32 46
-57 36 -37 47 -44 54 -32 7 11 2 19 -15 30 -14 8 -25 18 -25 22 0 4 -11 17
-24 30 -13 13 -31 37 -39 53 -9 17 -16 24 -17 16 0 -7 -17 4 -38 25 -70 72
-138 125 -159 124 -4 -1 39 -46 97 -100z"/>
<path d="M2025 1380 c3 -5 13 -10 21 -10 8 0 12 5 9 10 -3 6 -13 10 -21 10 -8
0 -12 -4 -9 -10z"/>
<path d="M4315 1379 c-11 -16 -1 -19 13 -3 7 8 8 14 3 14 -5 0 -13 -5 -16 -11z"/>
<path d="M4255 1370 c-16 -7 -17 -9 -3 -9 9 -1 20 4 23 9 7 11 7 11 -20 0z"/>
<path d="M4634 1362 c-23 -20 -39 -68 -25 -77 5 -3 16 3 23 12 7 10 22 19 33
21 11 2 33 6 48 9 19 4 32 0 40 -10 7 -9 30 -25 53 -36 34 -18 45 -19 73 -10
43 15 34 33 -18 37 -25 2 -44 9 -48 18 -3 8 -11 14 -19 14 -8 0 -23 5 -34 10
-11 6 -29 15 -40 20 -29 15 -62 12 -86 -8z"/>
<path d="M6174 1362 c-31 -17 -84 -72 -84 -88 0 -10 -45 -54 -54 -54 -8 0 -31
-18 -54 -42 -9 -10 -22 -18 -29 -18 -7 0 -13 -5 -13 -11 0 -6 -8 -8 -19 -4
-24 7 -39 -14 -20 -27 10 -6 7 -7 -9 -3 -22 6 -23 5 -12 -15 7 -12 9 -36 6
-53 l-6 -30 23 26 c12 15 27 27 33 27 27 0 155 104 205 166 80 99 99 126 99
135 0 14 -32 10 -66 -9z"/>
<path d="M1260 1360 c-9 -6 -10 -10 -3 -10 6 0 15 5 18 10 8 12 4 12 -15 0z"/>
<path d="M4378 1363 c7 -3 16 -2 19 1 4 3 -2 6 -13 5 -11 0 -14 -3 -6 -6z"/>
<path d="M388 1353 c7 -3 16 -2 19 1 4 3 -2 6 -13 5 -11 0 -14 -3 -6 -6z"/>
<path d="M4577 1334 c-11 -14 -17 -28 -14 -30 7 -8 37 26 37 42 0 19 -2 18
-23 -12z"/>
<path d="M4836 1345 c-3 -9 0 -15 8 -15 7 0 13 7 13 15 0 8 -4 15 -8 15 -4 0
-9 -7 -13 -15z"/>
<path d="M4895 1341 c-6 -11 20 -33 28 -24 4 3 7 10 7 14 0 11 -29 19 -35 10z"/>
<path d="M345 1330 c3 -5 11 -10 16 -10 6 0 7 5 4 10 -3 6 -11 10 -16 10 -6 0
-7 -4 -4 -10z"/>
<path d="M4153 1333 c9 -2 23 -2 30 0 6 3 -1 5 -18 5 -16 0 -22 -2 -12 -5z"/>
<path d="M2239 1315 c37 -17 71 -20 56 -6 -6 5 -28 11 -50 15 l-40 6 34 -15z"/>
<path d="M610 1309 c0 -5 9 -9 20 -9 11 0 20 2 20 4 0 2 -9 6 -20 9 -11 3 -20
1 -20 -4z"/>
<path d="M4070 1310 c-9 -6 -10 -10 -3 -10 6 0 15 5 18 10 8 12 4 12 -15 0z"/>
<path d="M5956 1311 c-22 -3 -42 -13 -44 -21 -4 -12 -3 -13 10 -3 17 15 102
20 136 9 13 -5 22 -3 22 3 0 6 -10 11 -22 11 -13 0 -32 2 -43 4 -11 2 -38 1
-59 -3z"/>
<path d="M445 1300 c-3 -5 3 -10 14 -10 12 0 21 5 21 10 0 6 -6 10 -14 10 -8
0 -18 -4 -21 -10z"/>
<path d="M4135 1300 c-3 -5 -16 -10 -27 -10 -12 0 -19 -3 -15 -6 8 -9 67 6 67
17 0 12 -17 12 -25 -1z"/>
<path d="M4030 1290 c0 -5 5 -10 10 -10 6 0 10 5 10 10 0 6 -4 10 -10 10 -5 0
-10 -4 -10 -10z"/>
<path d="M2240 1280 c0 -5 12 -10 28 -9 24 0 25 1 7 9 -27 12 -35 12 -35 0z"/>
<path d="M445 1270 c3 -5 10 -10 16 -10 5 0 9 5 9 10 0 6 -7 10 -16 10 -8 0
-12 -4 -9 -10z"/>
<path d="M1597 1268 c5 -10 72 -9 97 1 12 4 -5 7 -41 7 -34 -1 -59 -4 -56 -8z"/>
<path d="M4415 1270 c-25 -11 1 -11 35 0 20 6 21 8 5 8 -11 0 -29 -3 -40 -8z"/>
<path d="M4927 1273 c-12 -12 -7 -22 8 -17 8 4 15 10 15 15 0 11 -14 12 -23 2z"/>
<path d="M1080 1259 l-45 -6 58 -1 c31 -1 57 0 57 2 0 9 -28 11 -70 5z"/>
<path d="M1185 1260 c3 -5 8 -10 11 -10 2 0 4 5 4 10 0 6 -5 10 -11 10 -5 0
-7 -4 -4 -10z"/>
<path d="M3865 1260 c-18 -8 -18 -9 5 -9 14 0 32 4 40 9 12 8 12 10 -5 9 -11
0 -29 -4 -40 -9z"/>
<path d="M4240 1255 c0 -16 16 -20 24 -6 3 5 -1 11 -9 15 -9 3 -15 0 -15 -9z"/>
<path d="M4586 1253 c-41 -9 -63 -10 -70 -3 -15 15 -36 12 -30 -4 4 -9 -8 -15
-42 -20 -67 -9 -96 -8 -89 4 3 6 2 10 -4 10 -5 0 -11 -5 -13 -12 -2 -6 -15
-12 -29 -14 -13 -1 -42 -7 -64 -13 -76 -20 -289 -39 -304 -27 -11 8 -13 8 -7
-1 5 -10 -4 -13 -37 -13 -24 0 -66 -2 -93 -5 l-49 -5 35 15 c34 15 34 15 5 10
-16 -4 -35 -13 -41 -21 -6 -7 -20 -14 -31 -14 -18 0 -52 -27 -42 -33 44 -25
50 -26 76 -16 15 6 82 13 148 15 66 3 136 9 155 14 44 11 179 26 205 22 11 -1
29 1 40 6 30 14 214 42 231 35 8 -3 20 -1 27 5 6 5 44 15 82 22 39 8 74 17 80
22 5 4 17 8 28 8 11 0 15 4 11 11 -4 7 -26 10 -60 6 -29 -3 -54 -2 -56 2 -2 4
-30 2 -62 -6z"/>
<path d="M5585 1260 l-50 -7 50 -1 c28 -1 57 3 65 8 17 11 17 11 -65 0z"/>
<path d="M2528 1253 c6 -2 18 -2 25 0 6 3 1 5 -13 5 -14 0 -19 -2 -12 -5z"/>
<path d="M1558 1243 c7 -3 16 -2 19 1 4 3 -2 6 -13 5 -11 0 -14 -3 -6 -6z"/>
<path d="M1665 1240 c-13 -6 -15 -9 -5 -9 8 0 22 4 30 9 18 12 2 12 -25 0z"/>
<path d="M2585 1230 c9 -30 13 -35 21 -27 3 3 -2 16 -11 29 l-17 23 7 -25z"/>
<path d="M5430 1240 c8 -5 20 -10 25 -10 6 0 3 5 -5 10 -8 5 -19 10 -25 10 -5
0 -3 -5 5 -10z"/>
<path d="M1608 1233 c7 -3 16 -2 19 1 4 3 -2 6 -13 5 -11 0 -14 -3 -6 -6z"/>
<path d="M2108 1234 c-10 -3 -18 -12 -18 -20 0 -8 -8 -14 -17 -14 -15 0 -15
-2 -4 -9 12 -8 13 -14 3 -36 -7 -14 -12 -38 -12 -53 0 -16 -5 -33 -12 -40 -9
-9 -9 -12 1 -12 14 0 41 24 41 36 0 4 8 25 18 45 31 69 105 85 199 43 32 -15
43 -26 47 -49 8 -43 40 -52 186 -51 69 1 128 -3 132 -8 4 -6 24 -6 52 1 26 6
49 6 52 2 7 -12 50 -11 72 0 9 5 25 12 35 15 10 3 17 11 15 18 -3 7 -48 13
-139 15 -217 6 -379 19 -390 30 -7 7 21 9 88 8 l98 -3 -80 8 c-99 9 -123 16
-157 47 -23 22 -38 26 -110 29 -45 1 -91 1 -100 -2z"/>
<path d="M2635 1230 c-3 -6 1 -7 9 -4 18 7 21 14 7 14 -6 0 -13 -4 -16 -10z"/>
<path d="M5535 1230 c-3 -5 1 -10 10 -10 9 0 13 5 10 10 -3 6 -8 10 -10 10 -2
0 -7 -4 -10 -10z"/>
<path d="M1168 1223 c6 -2 18 -2 25 0 6 3 1 5 -13 5 -14 0 -19 -2 -12 -5z"/>
<path d="M1520 1219 c0 -5 5 -7 10 -4 6 3 10 8 10 11 0 2 -4 4 -10 4 -5 0 -10
-5 -10 -11z"/>
<path d="M2667 1218 c-7 -4 1 -8 18 -8 17 0 36 4 43 9 9 5 3 8 -18 7 -17 -1
-37 -4 -43 -8z"/>
<path d="M3665 1219 c4 -5 22 -9 42 -9 45 0 40 5 -10 13 -22 3 -35 2 -32 -4z"/>
<path d="M3830 1220 c-13 -9 -13 -10 0 -9 8 0 24 4 35 9 l20 9 -20 0 c-11 0
-27 -4 -35 -9z"/>
<path d="M4919 1213 c-13 -15 -12 -15 9 -4 23 12 28 21 13 21 -5 0 -15 -7 -22
-17z"/>
<path d="M5268 1219 c15 -6 30 -5 40 1 13 7 8 9 -23 9 -35 0 -37 -1 -17 -10z"/>
<path d="M5378 1223 c6 -2 18 -2 25 0 6 3 1 5 -13 5 -14 0 -19 -2 -12 -5z"/>
<path d="M5598 1223 c7 -3 16 -2 19 1 4 3 -2 6 -13 5 -11 0 -14 -3 -6 -6z"/>
<path d="M1565 1203 c-8 -7 -12 -20 -9 -28 4 -10 -1 -15 -16 -15 -12 0 -18 -4
-15 -11 4 -6 13 -8 21 -5 11 4 13 -3 8 -34 -5 -32 -3 -40 9 -40 18 0 27 21 27
66 0 26 3 32 15 28 8 -4 22 -1 30 6 18 15 93 4 117 -17 10 -9 25 -13 34 -9 8
3 21 3 27 -1 7 -4 34 -9 61 -10 27 -1 53 -6 58 -11 12 -12 110 8 105 22 -2 6
-21 13 -43 16 -21 3 -46 10 -54 15 -8 5 -53 10 -100 13 -47 2 -94 9 -106 17
-28 18 -151 17 -169 -2z"/>
<path d="M2750 1210 c-13 -8 -13 -10 2 -10 9 0 20 5 23 10 8 13 -5 13 -25 0z"/>
<path d="M3433 1201 c-17 -11 -34 -18 -37 -15 -3 2 -2 -1 2 -6 5 -6 3 -41 -4
-78 -14 -73 -4 -102 17 -53 10 23 18 29 32 25 18 -6 18 -5 2 20 -17 25 -17 26
19 62 35 35 39 36 95 32 39 -3 67 -11 85 -25 15 -12 34 -19 42 -16 20 7 17 21
-6 28 -11 3 -20 12 -20 19 0 31 -179 36 -227 7z"/>
<path d="M2493 1203 c9 -2 23 -2 30 0 6 3 -1 5 -18 5 -16 0 -22 -2 -12 -5z"/>
<path d="M5368 1203 c7 -3 16 -2 19 1 4 3 -2 6 -13 5 -11 0 -14 -3 -6 -6z"/>
<path d="M5643 1203 c9 -2 23 -2 30 0 6 3 -1 5 -18 5 -16 0 -22 -2 -12 -5z"/>
<path d="M3758 1193 c6 -2 18 -2 25 0 6 3 1 5 -13 5 -14 0 -19 -2 -12 -5z"/>
<path d="M3965 1190 c3 -5 10 -10 16 -10 5 0 9 5 9 10 0 6 -7 10 -16 10 -8 0
-12 -4 -9 -10z"/>
<path d="M4083 1193 c9 -2 23 -2 30 0 6 3 -1 5 -18 5 -16 0 -22 -2 -12 -5z"/>
<path d="M5900 1196 c0 -2 7 -6 15 -10 8 -3 15 -1 15 4 0 6 -7 10 -15 10 -8 0
-15 -2 -15 -4z"/>
<path d="M5950 1190 c-13 -8 -12 -10 3 -10 9 0 17 5 17 10 0 12 -1 12 -20 0z"/>
<path d="M480 1180 c0 -5 5 -10 11 -10 5 0 7 5 4 10 -3 6 -8 10 -11 10 -2 0
-4 -4 -4 -10z"/>
<path d="M2008 1183 c6 -2 18 -2 25 0 6 3 1 5 -13 5 -14 0 -19 -2 -12 -5z"/>
<path d="M3213 1173 c15 -2 37 -2 50 0 12 2 0 4 -28 4 -27 0 -38 -2 -22 -4z"/>
<path d="M4654 1171 c-46 -12 -55 -20 -50 -49 2 -15 5 -31 6 -37 1 -5 5 -1 9
9 4 10 27 26 52 35 69 26 56 59 -17 42z"/>
<path d="M4768 1153 c-7 -16 -28 -35 -45 -43 -33 -15 -38 -33 -12 -38 19 -4
99 49 99 66 0 7 -6 20 -14 28 -13 12 -16 11 -28 -13z"/>
<path d="M3370 1150 c0 -5 5 -10 11 -10 5 0 7 5 4 10 -3 6 -8 10 -11 10 -2 0
-4 -4 -4 -10z"/>
<path d="M4480 1140 c-11 -7 -5 -10 23 -10 23 0 36 4 32 10 -8 13 -35 13 -55
0z"/>
<path d="M2175 1130 c-12 -19 7 -27 80 -35 70 -7 70 -7 50 13 -24 24 -119 40
-130 22z"/>
<path d="M5846 1110 c8 -43 14 -51 14 -19 0 13 -5 31 -10 39 -7 11 -8 5 -4
-20z"/>
<path d="M3135 1119 c-16 -5 -66 -8 -110 -6 -90 4 -107 -4 -103 -52 3 -35 17
-41 25 -12 4 18 16 19 181 19 181 -1 232 7 232 37 0 12 -14 15 -69 15 -38 0
-81 2 -97 5 -16 2 -42 0 -59 -6z"/>
<path d="M3503 1124 c-18 -8 -16 -31 3 -38 20 -8 92 -6 123 3 21 6 22 8 8 19
-17 14 -114 25 -134 16z"/>
<path d="M4335 1119 c-4 -6 -5 -13 -2 -16 7 -7 27 6 27 18 0 12 -17 12 -25 -2z"/>
<path d="M4400 1115 c0 -9 6 -12 15 -9 8 4 15 10 15 15 0 5 -7 9 -15 9 -8 0
-15 -7 -15 -15z"/>
<path d="M1632 1103 c12 -15 11 -15 -11 -4 -19 11 -23 11 -19 -1 3 -7 18 -13
34 -14 16 0 39 -5 51 -12 30 -17 52 -15 60 4 8 22 -21 37 -80 40 -43 2 -47 1
-35 -13z"/>
<path d="M3370 1109 c0 -5 5 -7 10 -4 6 3 10 8 10 11 0 2 -4 4 -10 4 -5 0 -10
-5 -10 -11z"/>
<path d="M4123 1092 c-32 -5 -45 -26 -41 -69 3 -35 23 -51 23 -19 0 8 13 28
28 46 30 34 27 48 -10 42z"/>
<path d="M1900 1078 c-3 -18 -6 -118 -4 -118 1 0 9 -3 18 -6 12 -5 16 0 16 22
0 47 -12 104 -21 104 -5 0 -9 -1 -9 -2z"/>
<path d="M4504 1063 c-4 -10 -6 -21 -6 -25 1 -5 -14 -8 -33 -8 -33 0 -35 -2
-25 -20 12 -22 55 -27 63 -7 4 9 8 9 15 -1 7 -10 11 -4 16 22 10 51 -12 79
-30 39z"/>
<path d="M4901 1063 c8 -9 13 -26 12 -37 -3 -18 -2 -18 7 3 11 24 -1 51 -22
51 -6 0 -4 -7 3 -17z"/>
<path d="M3976 1055 c-6 -18 29 -41 39 -25 3 6 0 17 -9 25 -18 19 -22 19 -30
0z"/>
<path d="M2103 1054 c-7 -3 -10 -11 -8 -17 2 -7 6 -36 9 -65 5 -58 11 -71 25
-56 10 10 2 145 -8 143 -3 0 -11 -3 -18 -5z"/>
<path d="M3843 1044 c-32 -14 -37 -22 -49 -86 -4 -25 -2 -38 5 -38 6 0 11 7
11 15 0 8 6 15 13 15 6 0 23 12 36 25 13 14 34 28 47 31 29 7 30 15 6 37 -22
20 -27 20 -69 1z"/>
<path d="M525 1023 l-18 -28 27 24 c28 26 31 31 17 31 -5 0 -17 -12 -26 -27z"/>
<path d="M2228 1039 c-19 -11 -25 -64 -8 -74 6 -3 10 0 10 7 0 7 15 27 34 43
l35 30 -27 2 c-15 1 -35 -3 -44 -8z"/>
<path d="M3569 1038 c-35 -12 -45 -61 -25 -109 16 -36 19 -33 16 19 -1 26 5
40 30 62 34 30 24 44 -21 28z"/>
<path d="M4198 1029 c-41 -21 -47 -33 -22 -43 30 -11 53 -6 81 19 24 21 26 26
13 35 -21 13 -29 12 -72 -11z"/>
<path d="M1200 1029 c0 -11 25 -22 39 -17 6 1 -1 8 -14 15 -14 6 -25 7 -25 2z"/>
<path d="M1410 1035 c0 -7 39 -45 45 -45 3 0 -2 11 -11 25 -14 22 -34 34 -34
20z"/>
<path d="M2476 1031 c-4 -7 -5 -15 -2 -18 9 -9 19 4 14 18 -4 11 -6 11 -12 0z"/>
<path d="M3431 1026 c-11 -13 -9 -77 5 -146 5 -22 6 -23 16 -7 9 16 4 155 -6
164 -2 2 -9 -3 -15 -11z"/>
<path d="M4361 1013 c-1 -17 -7 -34 -13 -36 -8 -4 -9 -6 -2 -6 22 -2 35 25 25
50 -9 23 -10 23 -10 -8z"/>
<path d="M4615 1030 c-3 -6 1 -7 9 -4 18 7 21 14 7 14 -6 0 -13 -4 -16 -10z"/>
<path d="M4950 1029 c0 -5 5 -7 10 -4 6 3 10 8 10 11 0 2 -4 4 -10 4 -5 0 -10
-5 -10 -11z"/>
<path d="M1790 1020 c-8 -6 -28 -8 -45 -5 l-30 6 30 -26 c34 -29 68 -29 73 -1
5 24 -10 38 -28 26z"/>
<path d="M1338 1013 c27 -11 9 -18 -47 -18 -33 0 -63 -4 -67 -8 -12 -11 16
-149 29 -144 13 4 15 40 3 75 -7 22 -6 23 41 17 92 -11 405 -66 478 -84 69
-17 128 -31 175 -40 50 -9 57 -11 355 -85 342 -85 572 -127 790 -145 104 -8
410 3 500 18 473 79 469 78 1095 233 297 74 450 116 460 127 8 9 24 20 34 24
15 6 17 10 7 20 -13 13 -83 17 -92 4 -3 -4 -18 -10 -34 -13 -22 -4 -26 -2 -21
11 3 9 2 13 -4 10 -6 -3 -10 -13 -10 -21 0 -8 -11 -15 -27 -15 -16 -1 -37 -3
-48 -4 -11 -1 -29 -2 -40 -3 -17 -2 -18 -4 -5 -12 13 -9 13 -10 0 -11 -35 -2
-70 -9 -145 -29 -44 -12 -100 -26 -125 -32 -25 -5 -61 -13 -80 -18 -19 -4 -43
-11 -52 -15 -11 -4 -18 -3 -18 5 0 7 -6 6 -16 -4 -10 -11 -24 -14 -41 -10 -17
5 -24 3 -20 -3 8 -13 -103 -44 -206 -59 -20 -3 -56 -12 -79 -20 -22 -8 -65
-17 -95 -20 -29 -4 -53 -10 -53 -15 0 -4 -16 -5 -36 -2 -25 4 -39 2 -45 -8 -7
-12 -12 -12 -30 -1 -11 7 -24 11 -27 8 -3 -3 0 -6 7 -6 7 0 9 -5 6 -11 -4 -6
-9 -8 -11 -6 -2 2 -39 -4 -83 -13 -43 -9 -87 -13 -97 -10 -10 4 -21 3 -24 -1
-18 -27 -581 -57 -599 -32 -3 4 -35 9 -71 11 -98 3 -192 23 -217 45 -11 10
-29 17 -40 14 -15 -4 -14 -5 5 -6 26 -1 30 -21 4 -21 -9 0 -33 5 -52 11 -19 5
-50 12 -69 15 -18 2 -41 8 -50 13 -9 5 -38 12 -66 15 -74 10 -115 26 -115 43
0 9 6 13 15 9 8 -3 15 -1 15 4 0 6 -9 10 -20 10 -11 0 -20 -7 -20 -15 0 -8 -9
-15 -21 -15 -11 0 -18 3 -16 8 3 4 -17 8 -44 10 -26 1 -67 9 -90 17 -23 8 -54
15 -70 15 -21 0 -27 4 -23 15 4 8 1 15 -5 15 -6 0 -11 -4 -11 -10 0 -12 -37
-13 -44 -1 -5 7 -31 14 -106 27 -8 1 -26 6 -40 9 -14 4 -52 13 -85 19 -33 7
-67 15 -75 18 -14 6 -71 15 -130 22 -47 5 -180 41 -180 49 0 12 -28 8 -33 -5
-3 -9 -10 -6 -22 10 -9 12 -22 22 -28 21 -9 0 -9 -2 1 -6z"/>
<path d="M2644 981 c-5 -34 -11 -42 -33 -47 -53 -12 -57 -14 -41 -24 36 -23
120 -7 120 22 0 10 -4 16 -10 13 -6 -4 -7 5 -4 23 4 19 1 32 -10 41 -13 11
-16 8 -22 -28z"/>
<path d="M2755 1008 c-2 -7 -5 -41 -7 -75 -2 -45 1 -64 10 -68 22 -8 34 -6 27
5 -4 6 -12 7 -18 4 -8 -5 -8 -3 1 7 15 16 17 139 2 139 -6 0 -13 -6 -15 -12z"/>
<path d="M2885 1010 c-19 -8 -19 -9 3 -9 12 -1 24 -1 27 -1 9 0 7 14 -2 17 -4
1 -17 -2 -28 -7z"/>
<path d="M2958 1014 c-24 -7 -32 -52 -13 -80 21 -32 32 -30 27 5 -4 27 -2 28
48 35 41 5 51 10 48 24 -2 13 -14 17 -48 19 -25 0 -52 -1 -62 -3z"/>
<path d="M3222 942 c2 -55 6 -79 15 -79 8 0 13 13 13 32 0 17 5 36 12 43 9 9
7 13 -6 18 -12 5 -14 9 -6 14 9 6 9 13 1 29 -23 41 -32 22 -29 -57z"/>
<path d="M4640 1010 c0 -6 7 -10 15 -10 8 0 15 2 15 4 0 2 -7 6 -15 10 -8 3
-15 1 -15 -4z"/>
<path d="M1505 990 c3 -5 8 -10 11 -10 2 0 4 5 4 10 0 6 -5 10 -11 10 -5 0 -7
-4 -4 -10z"/>
<path d="M2480 958 c0 -26 5 -50 10 -53 6 -3 10 3 10 15 0 11 7 23 15 26 19 8
20 24 0 24 -7 0 -19 8 -24 18 -8 13 -10 7 -11 -30z"/>
<path d="M3141 986 c-1 -11 -4 -16 -8 -13 -3 4 -11 0 -17 -8 -6 -8 -29 -21
-51 -28 -39 -14 -39 -14 -16 -26 26 -14 56 -9 88 16 19 15 21 23 14 48 -6 19
-10 23 -10 11z"/>
<path d="M4850 996 c0 -2 9 -6 20 -9 11 -3 20 -1 20 4 0 5 -9 9 -20 9 -11 0
-20 -2 -20 -4z"/>
<path d="M4968 993 c6 -2 18 -2 25 0 6 3 1 5 -13 5 -14 0 -19 -2 -12 -5z"/>
<path d="M5905 990 c4 -6 10 -9 13 -6 3 3 12 0 20 -7 13 -10 14 -9 10 3 -2 8
-15 17 -27 18 -16 3 -21 0 -16 -8z"/>
<path d="M1620 983 c0 -5 13 -17 28 -27 l27 -19 -24 26 c-26 28 -31 32 -31 20z"/>
<path d="M2320 978 c-44 -12 -46 -14 -30 -33 23 -28 120 -12 120 20 0 9 -4 14
-9 10 -5 -3 -12 -1 -16 5 -7 12 -18 12 -65 -2z"/>
<path d="M3638 971 c-29 -14 -34 -20 -27 -34 14 -24 60 -21 98 7 31 23 32 25
13 35 -27 14 -39 13 -84 -8z"/>
<path d="M4785 980 c-18 -8 -17 -9 8 -9 16 -1 26 3 22 9 -3 6 -7 10 -8 9 -1 0
-11 -4 -22 -9z"/>
<path d="M2870 970 c-8 -5 -10 -10 -5 -10 6 0 17 5 25 10 8 5 11 10 5 10 -5 0
-17 -5 -25 -10z"/>
<path d="M3988 955 c-6 -30 -3 -43 8 -33 3 4 4 19 2 35 l-3 28 -7 -30z"/>
<path d="M4663 973 c9 -2 25 -2 35 0 9 3 1 5 -18 5 -19 0 -27 -2 -17 -5z"/>
<path d="M2050 960 c0 -5 5 -10 10 -10 6 0 10 5 10 10 0 6 -4 10 -10 10 -5 0
-10 -4 -10 -10z"/>
<path d="M4525 960 c-3 -5 -1 -10 4 -10 6 0 11 5 11 10 0 6 -2 10 -4 10 -3 0
-8 -4 -11 -10z"/>
<path d="M2005 950 c-3 -5 1 -13 10 -16 22 -9 29 1 11 15 -10 8 -16 9 -21 1z"/>
<path d="M3880 940 c-9 -16 -8 -22 5 -26 21 -9 37 8 29 29 -8 23 -21 21 -34
-3z"/>
<path d="M4073 947 c2 -7 12 -14 21 -15 11 -3 17 1 14 9 -2 7 -12 13 -22 15
-9 1 -15 -3 -13 -9z"/>
<path d="M5230 950 c0 -5 5 -10 10 -10 6 0 10 5 10 10 0 6 -4 10 -10 10 -5 0
-10 -4 -10 -10z"/>
<path d="M2226 935 c-3 -8 -1 -15 4 -15 6 0 10 7 10 15 0 8 -2 15 -4 15 -2 0
-6 -7 -10 -15z"/>
<path d="M4560 940 c0 -5 5 -10 10 -10 6 0 10 5 10 10 0 6 -4 10 -10 10 -5 0
-10 -4 -10 -10z"/>
<path d="M4620 940 c0 -5 5 -10 10 -10 6 0 10 5 10 10 0 6 -4 10 -10 10 -5 0
-10 -4 -10 -10z"/>
<path d="M2068 923 c7 -3 16 -2 19 1 4 3 -2 6 -13 5 -11 0 -14 -3 -6 -6z"/>
<path d="M3338 897 c-3 -15 -1 -30 4 -33 13 -9 15 -3 8 31 l-6 30 -6 -28z"/>
<path d="M4190 910 l-35 -7 43 -2 c23 0 42 4 42 9 0 6 -3 9 -7 9 -5 -1 -24 -5
-43 -9z"/>
<path d="M4260 910 c8 -5 22 -10 30 -10 13 0 13 1 0 10 -8 5 -22 10 -30 10
-13 0 -13 -1 0 -10z"/>
<path d="M4458 913 c7 -3 16 -2 19 1 4 3 -2 6 -13 5 -11 0 -14 -3 -6 -6z"/>
<path d="M6000 916 c0 -2 7 -6 15 -10 8 -3 15 -1 15 4 0 6 -7 10 -15 10 -8 0
-15 -2 -15 -4z"/>
<path d="M1915 900 c-3 -5 -1 -10 4 -10 6 0 11 5 11 10 0 6 -2 10 -4 10 -3 0
-8 -4 -11 -10z"/>
<path d="M3951 873 c-32 -38 -30 -56 8 -66 14 -3 17 0 13 20 -3 18 1 26 17 30
11 3 21 9 21 14 0 5 10 9 23 9 21 1 22 1 3 15 -31 23 -51 18 -85 -22z"/>
<path d="M4117 899 c-23 -13 -22 -29 2 -29 23 0 33 11 23 27 -5 8 -13 8 -25 2z"/>
<path d="M4331 896 c-10 -12 -8 -13 9 -9 25 7 37 23 17 23 -8 0 -20 -6 -26
-14z"/>
<path d="M6073 900 c2 -8 12 -16 23 -17 13 -2 15 -1 4 4 -8 3 -19 11 -23 17
-6 7 -7 6 -4 -4z"/>
<path d="M2862 883 c5 -25 28 -28 28 -4 0 12 -6 21 -16 21 -9 0 -14 -7 -12
-17z"/>
<path d="M2090 880 c0 -5 5 -10 11 -10 5 0 7 5 4 10 -3 6 -8 10 -11 10 -2 0
-4 -4 -4 -10z"/>
<path d="M2381 877 c-7 -9 -29 -18 -49 -20 -22 -3 -18 -3 11 -2 51 2 61 7 55
25 -2 8 -8 7 -17 -3z"/>
<path d="M3540 880 c0 -5 5 -10 11 -10 5 0 7 5 4 10 -3 6 -8 10 -11 10 -2 0
-4 -4 -4 -10z"/>
<path d="M4440 875 c0 -8 4 -15 9 -15 5 0 11 7 15 15 3 9 0 15 -9 15 -8 0 -15
-7 -15 -15z"/>
<path d="M2131 864 c0 -11 3 -14 6 -6 3 7 2 16 -1 19 -3 4 -6 -2 -5 -13z"/>
<path d="M3845 862 c-6 -4 -12 -17 -12 -30 -2 -33 29 -25 38 11 7 27 -4 35
-26 19z"/>
<path d="M1200 853 c0 -6 8 -17 18 -24 16 -13 16 -13 2 6 -8 11 -16 22 -17 24
-2 2 -3 0 -3 -6z"/>
<path d="M6138 853 c7 -3 16 -2 19 1 4 3 -2 6 -13 5 -11 0 -14 -3 -6 -6z"/>
<path d="M2170 840 c34 -11 60 -11 35 0 -11 5 -29 8 -40 8 -16 0 -15 -2 5 -8z"/>
<path d="M2910 836 c0 -9 5 -16 10 -16 6 0 10 4 10 9 0 6 -4 13 -10 16 -5 3
-10 -1 -10 -9z"/>
<path d="M3006 835 c10 -8 24 -14 29 -14 6 0 1 6 -9 14 -11 8 -24 15 -30 15
-5 0 -1 -7 10 -15z"/>
<path d="M2400 831 c0 -11 49 -36 57 -28 3 4 -1 7 -10 7 -9 0 -17 4 -17 9 0 5
-7 11 -15 15 -8 3 -15 2 -15 -3z"/>
<path d="M2530 829 c0 -5 5 -7 10 -4 6 3 10 8 10 11 0 2 -4 4 -10 4 -5 0 -10
-5 -10 -11z"/>
<path d="M2632 833 c-19 -8 -4 -22 18 -16 11 3 17 9 14 14 -6 10 -12 10 -32 2z"/>
<path d="M3630 830 c0 -5 5 -10 10 -10 6 0 10 5 10 10 0 6 -4 10 -10 10 -5 0
-10 -4 -10 -10z"/>
<path d="M4045 829 c-4 -6 -5 -13 -2 -16 7 -7 27 6 27 18 0 12 -17 12 -25 -2z"/>
<path d="M6160 831 c0 -5 7 -11 15 -15 8 -3 15 -1 15 3 0 5 -7 11 -15 15 -8 3
-15 1 -15 -3z"/>
<path d="M295 813 c-20 -15 -20 -15 3 -8 13 4 22 2 22 -4 0 -6 -15 -11 -32
-12 -47 0 -103 -22 -103 -39 0 -24 50 -28 449 -35 209 -4 383 -8 386 -10 3 -2
63 -6 134 -9 70 -4 131 -7 135 -8 20 -2 31 4 31 17 0 8 -7 15 -16 15 -9 0 -14
7 -12 18 1 9 -1 23 -6 30 -4 7 -2 20 6 29 9 12 9 15 1 9 -8 -4 -13 -1 -13 8 0
9 -7 16 -16 16 -14 0 -16 -7 -11 -40 5 -37 3 -40 -19 -40 -16 0 -24 6 -24 18
0 12 -3 13 -8 4 -6 -8 -33 -12 -88 -10 -98 2 -114 6 -88 25 10 7 13 13 7 13
-6 0 -16 -7 -23 -15 -14 -17 -130 -22 -130 -5 0 6 -10 10 -22 10 -19 0 -20 -2
-8 -10 11 -7 7 -10 -17 -10 -18 0 -33 5 -33 10 0 6 -5 10 -11 10 -5 0 -8 -4
-5 -9 4 -5 -29 -7 -76 -5 -46 2 -147 5 -226 6 -138 1 -144 2 -155 24 -11 21
-14 21 -32 7z"/>
<path d="M3068 823 c6 -2 18 -2 25 0 6 3 1 5 -13 5 -14 0 -19 -2 -12 -5z"/>
<path d="M3121 814 c0 -11 3 -14 6 -6 3 7 2 16 -1 19 -3 4 -6 -2 -5 -13z"/>
<path d="M3260 816 c10 -13 40 -12 40 1 0 3 -7 3 -15 -1 -8 -3 -15 -1 -15 4 0
6 -5 10 -11 10 -8 0 -8 -4 1 -14z"/>
<path d="M3558 824 c-3 -3 -20 -6 -38 -6 -17 -1 -26 -4 -20 -8 14 -9 70 0 70
11 0 10 -4 11 -12 3z"/>
<path d="M3702 815 c-10 -12 -10 -15 2 -15 7 0 16 7 20 15 7 19 -5 19 -22 0z"/>
<path d="M1207 799 c7 -7 15 -10 18 -7 3 3 -2 9 -12 12 -14 6 -15 5 -6 -5z"/>
<path d="M2688 803 c7 -3 16 -2 19 1 4 3 -2 6 -13 5 -11 0 -14 -3 -6 -6z"/>
<path d="M2818 803 c7 -3 16 -2 19 1 4 3 -2 6 -13 5 -11 0 -14 -3 -6 -6z"/>
<path d="M3618 803 c12 -2 32 -2 45 0 12 2 2 4 -23 4 -25 0 -35 -2 -22 -4z"/>
<path d="M4146 795 c-3 -8 -1 -15 4 -15 6 0 10 7 10 15 0 8 -2 15 -4 15 -2 0
-6 -7 -10 -15z"/>
<path d="M6199 805 c-3 -2 -51 -6 -109 -10 -213 -12 -268 -17 -395 -30 -71 -8
-165 -17 -209 -20 -43 -3 -83 -8 -88 -11 -5 -3 -55 -10 -110 -15 -76 -6 -105
-5 -117 4 -12 10 -14 9 -8 -5 4 -11 2 -18 -6 -18 -21 0 -37 -16 -42 -38 -5
-27 3 -27 170 -7 279 34 379 44 530 54 88 6 196 16 240 21 44 5 121 12 170 15
50 4 94 10 99 15 4 4 -7 15 -25 23 -36 16 -94 29 -100 22z"/>
<path d="M413 793 c9 -2 23 -2 30 0 6 3 -1 5 -18 5 -16 0 -22 -2 -12 -5z"/>
<path d="M960 790 c0 -5 5 -10 11 -10 5 0 7 5 4 10 -3 6 -8 10 -11 10 -2 0 -4
-4 -4 -10z"/>
<path d="M1116 792 c-3 -6 -1 -14 5 -17 15 -10 25 3 12 16 -7 7 -13 7 -17 1z"/>
<path d="M5510 790 c-9 -6 -10 -10 -3 -10 6 0 15 5 18 10 8 12 4 12 -15 0z"/>
<path d="M5775 790 c-3 -5 -1 -10 4 -10 6 0 11 5 11 10 0 6 -2 10 -4 10 -3 0
-8 -4 -11 -10z"/>
<path d="M918 783 c6 -2 18 -2 25 0 6 3 1 5 -13 5 -14 0 -19 -2 -12 -5z"/>
<path d="M2448 773 c6 -2 18 -2 25 0 6 3 1 5 -13 5 -14 0 -19 -2 -12 -5z"/>
<path d="M5440 760 c0 -5 5 -10 11 -10 5 0 7 5 4 10 -3 6 -8 10 -11 10 -2 0
-4 -4 -4 -10z"/>
<path d="M2518 753 c6 -2 18 -2 25 0 6 3 1 5 -13 5 -14 0 -19 -2 -12 -5z"/>
<path d="M3855 750 c28 -12 37 -12 30 0 -3 6 -16 10 -28 9 -21 0 -21 -1 -2 -9z"/>
<path d="M5191 744 c0 -11 3 -14 6 -6 3 7 2 16 -1 19 -3 4 -6 -2 -5 -13z"/>
<path d="M5373 753 c9 -2 25 -2 35 0 9 3 1 5 -18 5 -19 0 -27 -2 -17 -5z"/>
<path d="M2858 713 c19 -4 21 -7 11 -19 -7 -8 -7 -14 -1 -14 8 0 22 22 22 36
0 2 -12 3 -27 3 -25 -2 -25 -2 -5 -6z"/>
<path d="M3680 706 c0 -9 5 -16 10 -16 6 0 10 4 10 9 0 6 -4 13 -10 16 -5 3
-10 -1 -10 -9z"/>
<path d="M3738 703 c7 -3 16 -2 19 1 4 3 -2 6 -13 5 -11 0 -14 -3 -6 -6z"/>
<path d="M2808 693 c7 -3 16 -2 19 1 4 3 -2 6 -13 5 -11 0 -14 -3 -6 -6z"/>
<path d="M2905 680 c-8 -13 5 -13 25 0 13 8 13 10 -2 10 -9 0 -20 -4 -23 -10z"/>
<path d="M3490 680 c-11 -7 -2 -10 29 -10 48 0 51 4 11 13 -14 3 -32 2 -40 -3z"/>
<path d="M3008 673 c6 -2 18 -2 25 0 6 3 1 5 -13 5 -14 0 -19 -2 -12 -5z"/>
</g>
</svg>
